M48
; DRILL file {KiCad 8.0.4+dfsg-1} date 2025-02-20T19:37:00-0800
; FORMAT={-:-/ absolute / inch / decimal}
; #@! TF.CreationDate,2025-02-20T19:37:00-08:00
; #@! TF.GenerationSoftware,Kicad,Pcbnew,8.0.4+dfsg-1
; #@! TF.FileFunction,Plated,1,2,PTH
FMAT,2
INCH
; #@! TA.AperFunction,Plated,PTH,ViaDrill
T1C0.0118
; #@! TA.AperFunction,Plated,PTH,ViaDrill
T2C0.0157
; #@! TA.AperFunction,Plated,PTH,ComponentDrill
T3C0.0197
; #@! TA.AperFunction,Plated,PTH,ComponentDrill
T4C0.0276
; #@! TA.AperFunction,Plated,PTH,ComponentDrill
T5C0.0295
; #@! TA.AperFunction,Plated,PTH,ComponentDrill
T6C0.0315
; #@! TA.AperFunction,Plated,PTH,ComponentDrill
T7C0.0354
; #@! TA.AperFunction,Plated,PTH,ComponentDrill
T8C0.0394
; #@! TA.AperFunction,Plated,PTH,ComponentDrill
T9C0.0500
; #@! TA.AperFunction,Plated,PTH,ComponentDrill
T10C0.0600
; #@! TA.AperFunction,Plated,PTH,ComponentDrill
T11C0.0630
%
G90
G05
T1
X3.4815Y-5.1963
X3.5362Y-2.4132
X3.5673Y-5.2167
X3.5701Y-5.1195
X3.6106Y-5.3041
X3.6213Y-2.1293
X3.7339Y-3.0455
X3.7535Y-2.9809
X3.7575Y-5.2667
X3.7579Y-5.0533
X3.7843Y-4.3829
X3.7854Y-3.7872
X3.8043Y-5.2167
X3.8051Y-3.1896
X3.8256Y-5.0762
X3.8268Y-2.11
X3.8465Y-3.2825
X3.852Y-4.9053
X3.8673Y-2.8829
X3.8866Y-3.0868
X3.9283Y-4.997
X3.9445Y-2.125
X3.95Y-3.7451
X3.963Y-5.2982
X3.9697Y-3.0486
X3.9717Y-3.1911
X3.972Y-3.4317
X3.9752Y-3.3561
X3.9843Y-5.2824
X3.9988Y-3.9073
X4.0004Y-3.6774
X4.0031Y-3.5785
X4.0862Y-5.4915
X4.1134Y-5.0033
X4.1441Y-4.8325
X4.1444Y-5.2564
X4.1459Y-4.9304
X4.1681Y-4.7014
X4.1998Y-5.223
X4.2051Y-5.1774
X4.2563Y-4.9754
X4.2614Y-5.1963
X4.2768Y-5.4624
X4.2783Y-4.9289
X4.3234Y-4.7925
X4.3417Y-2.5715
X4.3465Y-5.0656
X4.3465Y-5.0656
X4.3465Y-5.0656
X4.3579Y-2.4927
X4.3734Y-4.9874
X4.376Y-5.2329
X4.3807Y-5.5329
X4.3984Y-5.1041
X4.3999Y-4.8449
X4.4169Y-4.5478
X4.4234Y-4.7925
X4.4283Y-4.718
X4.4339Y-5.547
X4.4398Y-2.4679
X4.4677Y-5.2608
X4.4681Y-5.3652
X4.4683Y-5.308
X4.4783Y-4.688
X4.4904Y-4.9683
X4.4904Y-5.1533
X4.4941Y-5.4632
X4.5002Y-5.125
X4.5193Y-5.2589
X4.5307Y-4.9132
X4.5402Y-5.5187
X4.5402Y-5.575
X4.5461Y-5.1073
X4.5551Y-4.5502
X4.5752Y-4.9325
X4.5772Y-4.8675
X4.5776Y-5.0435
X4.5807Y-5.4171
X4.6083Y-4.708
X4.6234Y-4.7925
X4.624Y-4.8699
X4.6301Y-5.4965
X4.6331Y-5.0467
X4.6331Y-5.438
X4.638Y-4.9291
X4.6425Y-5.1581
X4.6524Y-5.5801
X4.6658Y-4.91
X4.6724Y-2.5628
X4.6745Y-4.8598
X4.6885Y-5.2279
X4.6961Y-5.5163
X4.7012Y-5.438
X4.7024Y-5.564
X4.7071Y-5.2998
X4.7179Y-4.8355
X4.7268Y-5.4584
X4.7474Y-4.9177
X4.749Y-5.4993
X4.7504Y-5.2289
X4.7508Y-5.3683
X4.7717Y-4.8691
X4.7843Y-5.278
X4.7949Y-5.2242
X4.7983Y-5.048
X4.8051Y-4.6459
X4.8051Y-4.9278
X4.8252Y-5.4963
X4.8255Y-5.3861
X4.8291Y-5.0049
X4.8516Y-5.7301
X4.8539Y-5.4222
X4.935Y-5.0167
X4.9811Y-4.9967
X4.9823Y-5.4238
X4.9827Y-5.5238
X5.022Y-3.8337
X5.0224Y-2.9313
X5.0224Y-3.025
X5.0236Y-3.3297
X5.0248Y-2.4285
X5.0441Y-3.5801
X5.1051Y-4.1593
X5.1547Y-4.2514
X5.1598Y-5.4258
X5.1598Y-5.6801
X5.1843Y-5.4758
X5.1925Y-5.3226
X5.2244Y-3.0939
X5.2339Y-3.8687
X5.2343Y-3.7656
X5.2358Y-3.5825
X5.2362Y-3.373
X5.2402Y-3.1813
X5.2402Y-3.4738
X5.2445Y-4.1793
X5.2449Y-4.1226
X5.2701Y-5.1801
X5.2701Y-5.3691
X5.2705Y-5.0864
X5.2717Y-5.2754
X5.3138Y-4.11
X5.3193Y-2.9415
X5.3205Y-5.2022
X5.3209Y-5.5297
X5.3965Y-3.3726
X5.3965Y-3.5781
X5.3965Y-3.7663
X5.3988Y-3.4742
X5.4043Y-3.1813
X5.4047Y-3.8675
X5.4055Y-3.0888
X5.5031Y-2.5691
X5.5055Y-2.6927
X5.5142Y-3.2085
X5.515Y-3.012
X5.5161Y-2.4329
X5.5169Y-3.5258
X5.5185Y-3.7006
X5.5205Y-2.8096
X5.5248Y-3.3096
X5.5268Y-3.4116
X5.528Y-3.8321
X5.5335Y-2.3006
X5.5354Y-2.9041
X5.5575Y-1.9789
X5.5579Y-2.1864
X5.563Y-2.7557
X5.5811Y-4.2415
X5.5839Y-2.4329
X5.6083Y-3.3096
X5.6291Y-2.5667
X5.6299Y-3.5033
X5.6339Y-2.6884
X5.6343Y-3.4124
X5.6386Y-3.2057
X5.6472Y-2.8041
X5.6472Y-3.0096
X5.6957Y-5.003
X5.7378Y-4.1478
X5.7391Y-4.4524
X5.7391Y-4.5075
X5.7391Y-4.6098
X5.7391Y-4.665
X5.748Y-3.747
X5.7508Y-2.8254
X5.7512Y-2.527
X5.7528Y-2.725
X5.7531Y-2.6207
X5.7535Y-3.338
X5.7551Y-3.6341
X5.7567Y-3.1293
X5.7571Y-3.0246
X5.7571Y-3.4368
X5.7575Y-2.3152
X5.7583Y-2.9301
X5.7587Y-2.3762
X5.7657Y-3.2116
X5.7689Y-5.3309
X5.7756Y-3.9297
X5.7953Y-2.6207
X5.8154Y-4.1754
X5.8157Y-2.3159
X5.835Y-2.1254
X5.8354Y-2.3762
X5.8362Y-2.5144
X5.8382Y-4.1486
X5.8571Y-2.7242
X5.8768Y-2.8238
X5.8858Y-2.3494
X5.8966Y-4.6098
X5.8966Y-4.665
X5.8975Y-4.4533
X5.8975Y-4.5085
X5.9413Y-5.3514
X5.9575Y-2.4659
X5.9693Y-2.4136
X5.9904Y-2.4894
X6.0291Y-2.4707
X6.0453Y-3.3675
X6.0543Y-5.6656
X6.0555Y-5.0801
X6.0673Y-2.497
X6.072Y-3.0278
X6.0728Y-2.4707
X6.0831Y-3.338
X6.0835Y-3.9959
X6.1059Y-2.5171
X6.1094Y-2.4077
X6.1098Y-4.3585
X6.1177Y-2.9317
X6.135Y-3.1285
X6.1575Y-3.2128
X6.1606Y-3.9931
X6.1717Y-5.2148
X6.1783Y-3.828
X6.1783Y-3.898
X6.1803Y-2.5636
X6.185Y-3.6998
X6.2079Y-3.1407
X6.2183Y-3.408
X6.2378Y-3.0825
X6.2472Y-3.0313
X6.3008Y-2.8939
X6.3016Y-2.9344
X6.3157Y-4.6541
X6.3165Y-4.5738
X6.3199Y-3.5435
X6.3378Y-4.7486
X6.3425Y-3.6785
X6.3606Y-3.2589
X6.361Y-3.2037
X6.3654Y-5.2329
X6.3683Y-3.388
X6.3772Y-3.0014
X6.385Y-2.962
X6.3883Y-3.3089
X6.4026Y-3.1159
X6.4079Y-2.447
X6.4087Y-2.8057
X6.4102Y-2.6648
X6.4185Y-3.546
X6.4197Y-5.5478
X6.4213Y-2.7707
X6.4295Y-3.2612
X6.437Y-2.1953
X6.458Y-2.7418
X6.4638Y-2.8514
X6.4783Y-3.2128
X6.4806Y-2.8948
X6.4988Y-2.564
X6.5041Y-2.6579
X6.5055Y-2.7514
X6.5055Y-2.8514
X6.5201Y-3.19
X6.5232Y-2.9557
X6.5378Y-3.0994
X6.5383Y-3.3309
X6.5394Y-3.1687
X6.5707Y-3.3673
X6.5713Y-3.1494
X6.5713Y-3.2156
X6.5734Y-3.2913
X6.5815Y-2.849
X6.5823Y-1.9713
X6.5823Y-2.3352
X6.5831Y-2.8002
X6.5839Y-2.1317
X6.5886Y-2.9909
X6.5886Y-3.0421
X6.6047Y-2.1959
X6.6189Y-5.4561
X6.6193Y-5.3648
X6.6205Y-2.2179
X6.6385Y-2.8405
X6.6385Y-3.0187
X6.6429Y-3.0683
X6.6472Y-3.2175
X6.65Y-2.3297
X6.6575Y-4.9041
X6.6638Y-2.9856
X6.6858Y-2.9246
X6.6909Y-3.09
X6.7209Y-2.9616
X6.7228Y-3.123
X6.7268Y-4.7195
X6.7307Y-2.8868
X6.739Y-3.2183
X6.7508Y-2.9226
X6.752Y-2.7955
X6.7524Y-2.9577
X6.7567Y-2.5951
X6.7685Y-5.2817
X6.776Y-4.8746
X6.7764Y-3.628
X6.7764Y-4.1919
X6.7844Y-3.3681
X6.8114Y-2.938
X6.8118Y-3.2116
X6.8165Y-3.4502
X6.8165Y-4.59
X6.8669Y-1.9486
X6.8685Y-3.2632
X6.8724Y-3.0683
X6.8724Y-3.1297
X6.8736Y-2.0439
X6.8764Y-2.8108
X6.8772Y-2.8612
X6.8783Y-3.848
X6.8827Y-3.6482
X6.8886Y-3.3569
X6.8902Y-2.9226
X6.8972Y-2.5419
X6.9059Y-3.5167
X6.9138Y-3.4852
X6.9256Y-3.3057
X6.9346Y-3.0943
X6.9346Y-3.1691
X6.95Y-2.3911
X6.9518Y-3.8343
X6.9518Y-3.9433
X6.9567Y-2.8612
X6.961Y-3.5289
X6.9724Y-2.7585
X6.976Y-2.5372
X6.9862Y-4.8372
X7.0024Y-3.0112
X7.0071Y-2.5112
X7.0232Y-1.9652
X7.0287Y-3.0947
X7.0378Y-2.3608
X7.0394Y-3.6116
X7.0407Y-3.3561
X7.0539Y-4.7156
X7.0866Y-3.1238
X7.1016Y-3.5301
X7.1094Y-3.4163
X7.1126Y-3.3561
X7.115Y-3.6132
X7.1185Y-2.8405
X7.1358Y-4.8841
X7.1531Y-3.1679
X7.1531Y-3.327
X7.1543Y-3.0904
X7.1555Y-2.973
X7.1642Y-2.4163
X7.1717Y-4.797
X7.1896Y-3.7787
X7.1992Y-3.1663
X7.2Y-3.0915
X7.202Y-3.5093
X7.211Y-3.5943
X7.2146Y-3.3128
X7.215Y-3.2352
X7.239Y-3.2096
X7.239Y-3.5998
X7.2398Y-3.2951
X7.252Y-2.8163
X7.2626Y-2.5352
X7.263Y-3.6152
X7.2634Y-3.0923
X7.265Y-3.31
X7.2657Y-4.6703
X7.2724Y-2.9762
X7.2795Y-3.4006
X7.2846Y-3.5982
X7.2898Y-3.125
X7.3071Y-4.5959
X7.3123Y-3.3093
X7.3126Y-2.8628
X7.3126Y-3.5978
X7.3146Y-2.0439
X7.3366Y-2.8104
X7.3378Y-3.6073
X7.3409Y-3.1691
X7.3409Y-3.3116
X7.35Y-3.4219
X7.3606Y-3.2352
X7.3673Y-3.3037
X7.3689Y-3.5837
X7.3724Y-3.1329
T2
X6.1706Y-2.4333
X6.1716Y-2.3675
X6.1807Y-2.5171
X6.2772Y-2.3604
X6.3091Y-3.1959
X6.3793Y-3.0388
X6.448Y-3.356
X6.5199Y-3.5435
X6.65Y-2.7715
X6.7551Y-2.7281
X6.7567Y-2.6667
X6.8598Y-2.5297
X6.8866Y-2.6085
X6.9161Y-1.9478
X7.1193Y-2.5405
X7.1878Y-2.5352
X7.2185Y-1.9405
T3
X5.5816Y-4.3047
X5.7391Y-4.3028
X5.8966Y-4.3028
X6.1899Y-4.4012
X6.1899Y-4.5577
X6.1928Y-4.7152
X6.2131Y-3.5831
X6.328Y-2.2459
X6.3287Y-2.488
X6.3299Y-2.3648
X6.4638Y-2.1518
X6.4657Y-1.9439
X6.5931Y-3.5531
X6.7421Y-2.5215
X6.9563Y-2.9758
X6.9917Y-3.2616
X7.087Y-2.9758
X7.2287Y-2.973
X7.3492Y-2.5313
X7.3594Y-2.9746
T4
X5.985Y-2.7585
X6.085Y-2.6585
X6.085Y-2.8585
X6.185Y-2.7585
T5
X8.0039Y-3.8813
X8.0539Y-3.8813
X8.1039Y-3.8813
T6
X5.6276Y-1.9719
X5.7614Y-1.9719
T7
X3.5201Y-5.6142
X3.6201Y-5.6142
X3.7331Y-5.6323
X3.8331Y-5.6323
X3.9331Y-5.6323
X5.1618Y-3.9443
X5.1618Y-4.1411
X5.3587Y-4.0427
X5.5398Y-4.064
X5.5398Y-4.164
T8
X3.5685Y-3.1982
X3.5685Y-3.2982
X3.5685Y-3.3982
X3.5685Y-3.4982
X3.5752Y-4.9715
X3.8744Y-4.9715
X4.1189Y-1.9278
X4.1189Y-2.0278
X4.1189Y-2.1278
X4.1189Y-2.2278
X4.1189Y-2.3278
X4.1189Y-2.4278
X4.1189Y-2.5278
X4.1189Y-2.6278
X4.1189Y-2.7278
X4.1189Y-2.8278
X4.1189Y-2.9278
X4.1189Y-3.0278
X4.1189Y-3.1278
X4.1189Y-3.2278
X4.1189Y-3.3278
X4.1189Y-3.4278
X4.1189Y-3.5278
X4.1189Y-3.6278
X4.1189Y-3.7278
X4.1189Y-3.8278
X4.2189Y-1.9278
X4.2189Y-2.0278
X4.2189Y-2.1278
X4.2189Y-2.2278
X4.2189Y-2.3278
X4.2189Y-2.4278
X4.2189Y-2.5278
X4.2189Y-2.6278
X4.2189Y-2.7278
X4.2189Y-2.8278
X4.2189Y-2.9278
X4.2189Y-3.0278
X4.2189Y-3.1278
X4.2189Y-3.2278
X4.2189Y-3.3278
X4.2189Y-3.4278
X4.2189Y-3.5278
X4.2189Y-3.6278
X4.2189Y-3.7278
X4.2189Y-3.8278
X4.3941Y-1.9291
X4.3941Y-2.0291
X4.3941Y-2.1291
X4.3941Y-2.2291
X4.3941Y-2.3291
X4.3941Y-2.4291
X4.3941Y-2.5291
X4.3941Y-2.6291
X4.3941Y-2.7291
X4.3941Y-2.8291
X4.3941Y-2.9291
X4.3941Y-3.0291
X4.3941Y-3.1291
X4.3941Y-3.2291
X4.3941Y-3.3291
X4.3941Y-3.4291
X4.3941Y-3.5291
X4.3941Y-3.6291
X4.3941Y-3.7291
X4.3941Y-3.8291
X4.5539Y-4.673
X4.6539Y-4.673
X4.7539Y-4.673
X4.8539Y-4.673
X5.0937Y-1.9289
X5.0937Y-2.0289
X5.0937Y-2.1289
X5.0937Y-2.2289
X5.0937Y-2.3289
X5.0937Y-2.4289
X5.0937Y-2.5289
X5.0937Y-2.6289
X5.0937Y-2.7289
X5.0937Y-2.8289
X5.0937Y-2.9289
X5.0937Y-3.0289
X5.0937Y-3.1289
X5.0937Y-3.2289
X5.0937Y-3.3289
X5.0937Y-3.4289
X5.0937Y-3.5289
X5.0937Y-3.6289
X5.0937Y-3.7289
X5.0937Y-3.8289
X5.2709Y-1.9289
X5.2709Y-2.0289
X5.2709Y-2.1289
X5.2709Y-2.2289
X5.2709Y-2.3289
X5.2709Y-2.4289
X5.2709Y-2.5289
X5.2709Y-2.6289
X5.2709Y-2.7289
X5.2709Y-2.8289
X5.2709Y-2.9289
X5.2709Y-3.0289
X5.2709Y-3.1289
X5.2709Y-3.2289
X5.2709Y-3.3289
X5.2709Y-3.4289
X5.2709Y-3.5289
X5.2709Y-3.6289
X5.2709Y-3.7289
X5.2709Y-3.8289
X5.3709Y-1.9289
X5.3709Y-2.0289
X5.3709Y-2.1289
X5.3709Y-2.2289
X5.3709Y-2.3289
X5.3709Y-2.4289
X5.3709Y-2.5289
X5.3709Y-2.6289
X5.3709Y-2.7289
X5.3709Y-2.8289
X5.3709Y-2.9289
X5.3709Y-3.0289
X5.3709Y-3.1289
X5.3709Y-3.2289
X5.3709Y-3.3289
X5.3709Y-3.4289
X5.3709Y-3.5289
X5.3709Y-3.6289
X5.3709Y-3.7289
X5.3709Y-3.8289
X6.1717Y-5.4124
X6.2217Y-5.6124
X6.2717Y-5.4124
X6.2807Y-3.3089
X6.3217Y-5.6124
X6.3717Y-5.4124
X6.4217Y-5.6124
X6.4383Y-4.168
X6.4717Y-5.4124
X6.5217Y-5.6124
X6.5717Y-5.4124
X6.6217Y-5.6124
X6.6717Y-5.4124
X6.7183Y-3.648
X6.7183Y-3.748
X6.7183Y-3.848
X6.7183Y-3.948
X6.7217Y-5.6124
X6.7717Y-5.4124
X6.8217Y-5.6124
X6.8717Y-5.4124
T9
X4.115Y-4.223
X4.7311Y-4.2254
X6.0695Y-2.0949
X7.1734Y-3.8827
T10
X3.99Y-4.098
X3.99Y-4.348
X4.24Y-4.098
X4.24Y-4.348
X4.6061Y-4.1004
X4.6061Y-4.3504
X4.8561Y-4.1004
X4.8561Y-4.3504
X5.9445Y-1.9699
X5.9445Y-2.2199
X6.1945Y-1.9699
X6.1945Y-2.2199
X7.0484Y-3.7577
X7.0484Y-4.0077
X7.2984Y-3.7577
X7.2984Y-4.0077
T11
X5.852Y-5.0809
X5.852Y-5.2809
X5.852Y-5.4809
X5.852Y-5.6809
X6.2205Y-5.1262
X6.4205Y-5.1262
X6.6205Y-5.1262
X6.8205Y-5.1262
M30
