%TF.GenerationSoftware,KiCad,Pcbnew,8.0.4+dfsg-1*%
%TF.CreationDate,2025-02-20T19:37:02-08:00*%
%TF.ProjectId,Audio_in_usd_sound_rp_pico,41756469-6f5f-4696-9e5f-7573645f736f,v0.3.0*%
%TF.SameCoordinates,Original*%
%TF.FileFunction,Drillmap*%
%TF.FilePolarity,Positive*%
%FSLAX45Y45*%
G04 Gerber Fmt 4.5, Leading zero omitted, Abs format (unit mm)*
G04 Created by KiCad (PCBNEW 8.0.4+dfsg-1) date 2025-02-20 19:37:02*
%MOMM*%
%LPD*%
G01*
G04 APERTURE LIST*
%ADD10C,0.050000*%
%ADD11C,0.200000*%
%ADD12C,0.170000*%
G04 APERTURE END LIST*
D10*
X8775000Y-4759500D02*
X18775000Y-4759500D01*
X18775000Y-14759500D01*
X8775000Y-14759500D01*
X8775000Y-4759500D01*
D11*
D12*
X9305000Y-5059500D02*
X9475000Y-5229500D01*
X9475000Y-5059500D02*
X9305000Y-5229500D01*
X9305000Y-5659500D02*
X9475000Y-5829500D01*
X9475000Y-5659500D02*
X9305000Y-5829500D01*
X17011000Y-5042500D02*
X17181000Y-5212500D01*
X17181000Y-5042500D02*
X17011000Y-5212500D01*
X17011000Y-5642500D02*
X17181000Y-5812500D01*
X17181000Y-5642500D02*
X17011000Y-5812500D01*
X17774000Y-10939500D02*
X17944000Y-11109500D01*
X17944000Y-10939500D02*
X17774000Y-11109500D01*
X18123000Y-13696500D02*
X18293000Y-13866500D01*
X18293000Y-13696500D02*
X18123000Y-13866500D01*
X18123000Y-14296500D02*
X18293000Y-14466500D01*
X18293000Y-14296500D02*
X18123000Y-14466500D01*
X18155000Y-5042500D02*
X18325000Y-5212500D01*
X18325000Y-5042500D02*
X18155000Y-5212500D01*
X18155000Y-5642500D02*
X18325000Y-5812500D01*
X18325000Y-5642500D02*
X18155000Y-5812500D01*
X18374000Y-10939500D02*
X18544000Y-11109500D01*
X18544000Y-10939500D02*
X18374000Y-11109500D01*
D11*
X13461000Y-10268500D02*
G75*
G02*
X13261000Y-10268500I-100000J0D01*
G01*
X13261000Y-10268500D02*
G75*
G02*
X13461000Y-10268500I100000J0D01*
G01*
X9033277Y-15073484D02*
X9033277Y-14873484D01*
X9033277Y-14873484D02*
X9080896Y-14873484D01*
X9080896Y-14873484D02*
X9109467Y-14883008D01*
X9109467Y-14883008D02*
X9128515Y-14902055D01*
X9128515Y-14902055D02*
X9138039Y-14921103D01*
X9138039Y-14921103D02*
X9147563Y-14959198D01*
X9147563Y-14959198D02*
X9147563Y-14987769D01*
X9147563Y-14987769D02*
X9138039Y-15025865D01*
X9138039Y-15025865D02*
X9128515Y-15044912D01*
X9128515Y-15044912D02*
X9109467Y-15063960D01*
X9109467Y-15063960D02*
X9080896Y-15073484D01*
X9080896Y-15073484D02*
X9033277Y-15073484D01*
X9233277Y-15073484D02*
X9233277Y-14940150D01*
X9233277Y-14978246D02*
X9242801Y-14959198D01*
X9242801Y-14959198D02*
X9252324Y-14949674D01*
X9252324Y-14949674D02*
X9271372Y-14940150D01*
X9271372Y-14940150D02*
X9290420Y-14940150D01*
X9357086Y-15073484D02*
X9357086Y-14940150D01*
X9357086Y-14873484D02*
X9347563Y-14883008D01*
X9347563Y-14883008D02*
X9357086Y-14892531D01*
X9357086Y-14892531D02*
X9366610Y-14883008D01*
X9366610Y-14883008D02*
X9357086Y-14873484D01*
X9357086Y-14873484D02*
X9357086Y-14892531D01*
X9480896Y-15073484D02*
X9461848Y-15063960D01*
X9461848Y-15063960D02*
X9452324Y-15044912D01*
X9452324Y-15044912D02*
X9452324Y-14873484D01*
X9585658Y-15073484D02*
X9566610Y-15063960D01*
X9566610Y-15063960D02*
X9557086Y-15044912D01*
X9557086Y-15044912D02*
X9557086Y-14873484D01*
X9814229Y-15073484D02*
X9814229Y-14873484D01*
X9814229Y-14873484D02*
X9880896Y-15016341D01*
X9880896Y-15016341D02*
X9947563Y-14873484D01*
X9947563Y-14873484D02*
X9947563Y-15073484D01*
X10128515Y-15073484D02*
X10128515Y-14968722D01*
X10128515Y-14968722D02*
X10118991Y-14949674D01*
X10118991Y-14949674D02*
X10099944Y-14940150D01*
X10099944Y-14940150D02*
X10061848Y-14940150D01*
X10061848Y-14940150D02*
X10042801Y-14949674D01*
X10128515Y-15063960D02*
X10109467Y-15073484D01*
X10109467Y-15073484D02*
X10061848Y-15073484D01*
X10061848Y-15073484D02*
X10042801Y-15063960D01*
X10042801Y-15063960D02*
X10033277Y-15044912D01*
X10033277Y-15044912D02*
X10033277Y-15025865D01*
X10033277Y-15025865D02*
X10042801Y-15006817D01*
X10042801Y-15006817D02*
X10061848Y-14997293D01*
X10061848Y-14997293D02*
X10109467Y-14997293D01*
X10109467Y-14997293D02*
X10128515Y-14987769D01*
X10223753Y-14940150D02*
X10223753Y-15140150D01*
X10223753Y-14949674D02*
X10242801Y-14940150D01*
X10242801Y-14940150D02*
X10280896Y-14940150D01*
X10280896Y-14940150D02*
X10299944Y-14949674D01*
X10299944Y-14949674D02*
X10309467Y-14959198D01*
X10309467Y-14959198D02*
X10318991Y-14978246D01*
X10318991Y-14978246D02*
X10318991Y-15035388D01*
X10318991Y-15035388D02*
X10309467Y-15054436D01*
X10309467Y-15054436D02*
X10299944Y-15063960D01*
X10299944Y-15063960D02*
X10280896Y-15073484D01*
X10280896Y-15073484D02*
X10242801Y-15073484D01*
X10242801Y-15073484D02*
X10223753Y-15063960D01*
X10404705Y-15054436D02*
X10414229Y-15063960D01*
X10414229Y-15063960D02*
X10404705Y-15073484D01*
X10404705Y-15073484D02*
X10395182Y-15063960D01*
X10395182Y-15063960D02*
X10404705Y-15054436D01*
X10404705Y-15054436D02*
X10404705Y-15073484D01*
X10404705Y-14949674D02*
X10414229Y-14959198D01*
X10414229Y-14959198D02*
X10404705Y-14968722D01*
X10404705Y-14968722D02*
X10395182Y-14959198D01*
X10395182Y-14959198D02*
X10404705Y-14949674D01*
X10404705Y-14949674D02*
X10404705Y-14968722D01*
D12*
X8602500Y-15317000D02*
X8772500Y-15487000D01*
X8772500Y-15317000D02*
X8602500Y-15487000D01*
D11*
X9138039Y-15493484D02*
X9023753Y-15493484D01*
X9080896Y-15493484D02*
X9080896Y-15293484D01*
X9080896Y-15293484D02*
X9061848Y-15322055D01*
X9061848Y-15322055D02*
X9042801Y-15341103D01*
X9042801Y-15341103D02*
X9023753Y-15350627D01*
X9223753Y-15474436D02*
X9233277Y-15483960D01*
X9233277Y-15483960D02*
X9223753Y-15493484D01*
X9223753Y-15493484D02*
X9214229Y-15483960D01*
X9214229Y-15483960D02*
X9223753Y-15474436D01*
X9223753Y-15474436D02*
X9223753Y-15493484D01*
X9299944Y-15293484D02*
X9433277Y-15293484D01*
X9433277Y-15293484D02*
X9347563Y-15493484D01*
X9547563Y-15293484D02*
X9566610Y-15293484D01*
X9566610Y-15293484D02*
X9585658Y-15303008D01*
X9585658Y-15303008D02*
X9595182Y-15312531D01*
X9595182Y-15312531D02*
X9604705Y-15331579D01*
X9604705Y-15331579D02*
X9614229Y-15369674D01*
X9614229Y-15369674D02*
X9614229Y-15417293D01*
X9614229Y-15417293D02*
X9604705Y-15455388D01*
X9604705Y-15455388D02*
X9595182Y-15474436D01*
X9595182Y-15474436D02*
X9585658Y-15483960D01*
X9585658Y-15483960D02*
X9566610Y-15493484D01*
X9566610Y-15493484D02*
X9547563Y-15493484D01*
X9547563Y-15493484D02*
X9528515Y-15483960D01*
X9528515Y-15483960D02*
X9518991Y-15474436D01*
X9518991Y-15474436D02*
X9509467Y-15455388D01*
X9509467Y-15455388D02*
X9499944Y-15417293D01*
X9499944Y-15417293D02*
X9499944Y-15369674D01*
X9499944Y-15369674D02*
X9509467Y-15331579D01*
X9509467Y-15331579D02*
X9518991Y-15312531D01*
X9518991Y-15312531D02*
X9528515Y-15303008D01*
X9528515Y-15303008D02*
X9547563Y-15293484D01*
X9738039Y-15293484D02*
X9757086Y-15293484D01*
X9757086Y-15293484D02*
X9776134Y-15303008D01*
X9776134Y-15303008D02*
X9785658Y-15312531D01*
X9785658Y-15312531D02*
X9795182Y-15331579D01*
X9795182Y-15331579D02*
X9804705Y-15369674D01*
X9804705Y-15369674D02*
X9804705Y-15417293D01*
X9804705Y-15417293D02*
X9795182Y-15455388D01*
X9795182Y-15455388D02*
X9785658Y-15474436D01*
X9785658Y-15474436D02*
X9776134Y-15483960D01*
X9776134Y-15483960D02*
X9757086Y-15493484D01*
X9757086Y-15493484D02*
X9738039Y-15493484D01*
X9738039Y-15493484D02*
X9718991Y-15483960D01*
X9718991Y-15483960D02*
X9709467Y-15474436D01*
X9709467Y-15474436D02*
X9699944Y-15455388D01*
X9699944Y-15455388D02*
X9690420Y-15417293D01*
X9690420Y-15417293D02*
X9690420Y-15369674D01*
X9690420Y-15369674D02*
X9699944Y-15331579D01*
X9699944Y-15331579D02*
X9709467Y-15312531D01*
X9709467Y-15312531D02*
X9718991Y-15303008D01*
X9718991Y-15303008D02*
X9738039Y-15293484D01*
X9890420Y-15493484D02*
X9890420Y-15360150D01*
X9890420Y-15379198D02*
X9899944Y-15369674D01*
X9899944Y-15369674D02*
X9918991Y-15360150D01*
X9918991Y-15360150D02*
X9947563Y-15360150D01*
X9947563Y-15360150D02*
X9966610Y-15369674D01*
X9966610Y-15369674D02*
X9976134Y-15388722D01*
X9976134Y-15388722D02*
X9976134Y-15493484D01*
X9976134Y-15388722D02*
X9985658Y-15369674D01*
X9985658Y-15369674D02*
X10004705Y-15360150D01*
X10004705Y-15360150D02*
X10033277Y-15360150D01*
X10033277Y-15360150D02*
X10052325Y-15369674D01*
X10052325Y-15369674D02*
X10061848Y-15388722D01*
X10061848Y-15388722D02*
X10061848Y-15493484D01*
X10157086Y-15493484D02*
X10157086Y-15360150D01*
X10157086Y-15379198D02*
X10166610Y-15369674D01*
X10166610Y-15369674D02*
X10185658Y-15360150D01*
X10185658Y-15360150D02*
X10214229Y-15360150D01*
X10214229Y-15360150D02*
X10233277Y-15369674D01*
X10233277Y-15369674D02*
X10242801Y-15388722D01*
X10242801Y-15388722D02*
X10242801Y-15493484D01*
X10242801Y-15388722D02*
X10252325Y-15369674D01*
X10252325Y-15369674D02*
X10271372Y-15360150D01*
X10271372Y-15360150D02*
X10299944Y-15360150D01*
X10299944Y-15360150D02*
X10318991Y-15369674D01*
X10318991Y-15369674D02*
X10328515Y-15388722D01*
X10328515Y-15388722D02*
X10328515Y-15493484D01*
X10718991Y-15283960D02*
X10547563Y-15541103D01*
X10976134Y-15293484D02*
X10995182Y-15293484D01*
X10995182Y-15293484D02*
X11014229Y-15303008D01*
X11014229Y-15303008D02*
X11023753Y-15312531D01*
X11023753Y-15312531D02*
X11033277Y-15331579D01*
X11033277Y-15331579D02*
X11042801Y-15369674D01*
X11042801Y-15369674D02*
X11042801Y-15417293D01*
X11042801Y-15417293D02*
X11033277Y-15455388D01*
X11033277Y-15455388D02*
X11023753Y-15474436D01*
X11023753Y-15474436D02*
X11014229Y-15483960D01*
X11014229Y-15483960D02*
X10995182Y-15493484D01*
X10995182Y-15493484D02*
X10976134Y-15493484D01*
X10976134Y-15493484D02*
X10957087Y-15483960D01*
X10957087Y-15483960D02*
X10947563Y-15474436D01*
X10947563Y-15474436D02*
X10938039Y-15455388D01*
X10938039Y-15455388D02*
X10928515Y-15417293D01*
X10928515Y-15417293D02*
X10928515Y-15369674D01*
X10928515Y-15369674D02*
X10938039Y-15331579D01*
X10938039Y-15331579D02*
X10947563Y-15312531D01*
X10947563Y-15312531D02*
X10957087Y-15303008D01*
X10957087Y-15303008D02*
X10976134Y-15293484D01*
X11128515Y-15474436D02*
X11138039Y-15483960D01*
X11138039Y-15483960D02*
X11128515Y-15493484D01*
X11128515Y-15493484D02*
X11118991Y-15483960D01*
X11118991Y-15483960D02*
X11128515Y-15474436D01*
X11128515Y-15474436D02*
X11128515Y-15493484D01*
X11261848Y-15293484D02*
X11280896Y-15293484D01*
X11280896Y-15293484D02*
X11299944Y-15303008D01*
X11299944Y-15303008D02*
X11309467Y-15312531D01*
X11309467Y-15312531D02*
X11318991Y-15331579D01*
X11318991Y-15331579D02*
X11328515Y-15369674D01*
X11328515Y-15369674D02*
X11328515Y-15417293D01*
X11328515Y-15417293D02*
X11318991Y-15455388D01*
X11318991Y-15455388D02*
X11309467Y-15474436D01*
X11309467Y-15474436D02*
X11299944Y-15483960D01*
X11299944Y-15483960D02*
X11280896Y-15493484D01*
X11280896Y-15493484D02*
X11261848Y-15493484D01*
X11261848Y-15493484D02*
X11242801Y-15483960D01*
X11242801Y-15483960D02*
X11233277Y-15474436D01*
X11233277Y-15474436D02*
X11223753Y-15455388D01*
X11223753Y-15455388D02*
X11214229Y-15417293D01*
X11214229Y-15417293D02*
X11214229Y-15369674D01*
X11214229Y-15369674D02*
X11223753Y-15331579D01*
X11223753Y-15331579D02*
X11233277Y-15312531D01*
X11233277Y-15312531D02*
X11242801Y-15303008D01*
X11242801Y-15303008D02*
X11261848Y-15293484D01*
X11499944Y-15293484D02*
X11461848Y-15293484D01*
X11461848Y-15293484D02*
X11442801Y-15303008D01*
X11442801Y-15303008D02*
X11433277Y-15312531D01*
X11433277Y-15312531D02*
X11414229Y-15341103D01*
X11414229Y-15341103D02*
X11404706Y-15379198D01*
X11404706Y-15379198D02*
X11404706Y-15455388D01*
X11404706Y-15455388D02*
X11414229Y-15474436D01*
X11414229Y-15474436D02*
X11423753Y-15483960D01*
X11423753Y-15483960D02*
X11442801Y-15493484D01*
X11442801Y-15493484D02*
X11480896Y-15493484D01*
X11480896Y-15493484D02*
X11499944Y-15483960D01*
X11499944Y-15483960D02*
X11509467Y-15474436D01*
X11509467Y-15474436D02*
X11518991Y-15455388D01*
X11518991Y-15455388D02*
X11518991Y-15407769D01*
X11518991Y-15407769D02*
X11509467Y-15388722D01*
X11509467Y-15388722D02*
X11499944Y-15379198D01*
X11499944Y-15379198D02*
X11480896Y-15369674D01*
X11480896Y-15369674D02*
X11442801Y-15369674D01*
X11442801Y-15369674D02*
X11423753Y-15379198D01*
X11423753Y-15379198D02*
X11414229Y-15388722D01*
X11414229Y-15388722D02*
X11404706Y-15407769D01*
X11690420Y-15293484D02*
X11652325Y-15293484D01*
X11652325Y-15293484D02*
X11633277Y-15303008D01*
X11633277Y-15303008D02*
X11623753Y-15312531D01*
X11623753Y-15312531D02*
X11604706Y-15341103D01*
X11604706Y-15341103D02*
X11595182Y-15379198D01*
X11595182Y-15379198D02*
X11595182Y-15455388D01*
X11595182Y-15455388D02*
X11604706Y-15474436D01*
X11604706Y-15474436D02*
X11614229Y-15483960D01*
X11614229Y-15483960D02*
X11633277Y-15493484D01*
X11633277Y-15493484D02*
X11671372Y-15493484D01*
X11671372Y-15493484D02*
X11690420Y-15483960D01*
X11690420Y-15483960D02*
X11699944Y-15474436D01*
X11699944Y-15474436D02*
X11709467Y-15455388D01*
X11709467Y-15455388D02*
X11709467Y-15407769D01*
X11709467Y-15407769D02*
X11699944Y-15388722D01*
X11699944Y-15388722D02*
X11690420Y-15379198D01*
X11690420Y-15379198D02*
X11671372Y-15369674D01*
X11671372Y-15369674D02*
X11633277Y-15369674D01*
X11633277Y-15369674D02*
X11614229Y-15379198D01*
X11614229Y-15379198D02*
X11604706Y-15388722D01*
X11604706Y-15388722D02*
X11595182Y-15407769D01*
X11804706Y-15493484D02*
X11842801Y-15493484D01*
X11842801Y-15493484D02*
X11861848Y-15483960D01*
X11861848Y-15483960D02*
X11871372Y-15474436D01*
X11871372Y-15474436D02*
X11890420Y-15445865D01*
X11890420Y-15445865D02*
X11899944Y-15407769D01*
X11899944Y-15407769D02*
X11899944Y-15331579D01*
X11899944Y-15331579D02*
X11890420Y-15312531D01*
X11890420Y-15312531D02*
X11880896Y-15303008D01*
X11880896Y-15303008D02*
X11861848Y-15293484D01*
X11861848Y-15293484D02*
X11823753Y-15293484D01*
X11823753Y-15293484D02*
X11804706Y-15303008D01*
X11804706Y-15303008D02*
X11795182Y-15312531D01*
X11795182Y-15312531D02*
X11785658Y-15331579D01*
X11785658Y-15331579D02*
X11785658Y-15379198D01*
X11785658Y-15379198D02*
X11795182Y-15398246D01*
X11795182Y-15398246D02*
X11804706Y-15407769D01*
X11804706Y-15407769D02*
X11823753Y-15417293D01*
X11823753Y-15417293D02*
X11861848Y-15417293D01*
X11861848Y-15417293D02*
X11880896Y-15407769D01*
X11880896Y-15407769D02*
X11890420Y-15398246D01*
X11890420Y-15398246D02*
X11899944Y-15379198D01*
X11976134Y-15293484D02*
X11976134Y-15331579D01*
X12052325Y-15293484D02*
X12052325Y-15331579D01*
X12347563Y-15569674D02*
X12338039Y-15560150D01*
X12338039Y-15560150D02*
X12318991Y-15531579D01*
X12318991Y-15531579D02*
X12309468Y-15512531D01*
X12309468Y-15512531D02*
X12299944Y-15483960D01*
X12299944Y-15483960D02*
X12290420Y-15436341D01*
X12290420Y-15436341D02*
X12290420Y-15398246D01*
X12290420Y-15398246D02*
X12299944Y-15350627D01*
X12299944Y-15350627D02*
X12309468Y-15322055D01*
X12309468Y-15322055D02*
X12318991Y-15303008D01*
X12318991Y-15303008D02*
X12338039Y-15274436D01*
X12338039Y-15274436D02*
X12347563Y-15264912D01*
X12528515Y-15493484D02*
X12414229Y-15493484D01*
X12471372Y-15493484D02*
X12471372Y-15293484D01*
X12471372Y-15293484D02*
X12452325Y-15322055D01*
X12452325Y-15322055D02*
X12433277Y-15341103D01*
X12433277Y-15341103D02*
X12414229Y-15350627D01*
X12652325Y-15293484D02*
X12671372Y-15293484D01*
X12671372Y-15293484D02*
X12690420Y-15303008D01*
X12690420Y-15303008D02*
X12699944Y-15312531D01*
X12699944Y-15312531D02*
X12709468Y-15331579D01*
X12709468Y-15331579D02*
X12718991Y-15369674D01*
X12718991Y-15369674D02*
X12718991Y-15417293D01*
X12718991Y-15417293D02*
X12709468Y-15455388D01*
X12709468Y-15455388D02*
X12699944Y-15474436D01*
X12699944Y-15474436D02*
X12690420Y-15483960D01*
X12690420Y-15483960D02*
X12671372Y-15493484D01*
X12671372Y-15493484D02*
X12652325Y-15493484D01*
X12652325Y-15493484D02*
X12633277Y-15483960D01*
X12633277Y-15483960D02*
X12623753Y-15474436D01*
X12623753Y-15474436D02*
X12614229Y-15455388D01*
X12614229Y-15455388D02*
X12604706Y-15417293D01*
X12604706Y-15417293D02*
X12604706Y-15369674D01*
X12604706Y-15369674D02*
X12614229Y-15331579D01*
X12614229Y-15331579D02*
X12623753Y-15312531D01*
X12623753Y-15312531D02*
X12633277Y-15303008D01*
X12633277Y-15303008D02*
X12652325Y-15293484D01*
X12957087Y-15493484D02*
X12957087Y-15293484D01*
X13042801Y-15493484D02*
X13042801Y-15388722D01*
X13042801Y-15388722D02*
X13033277Y-15369674D01*
X13033277Y-15369674D02*
X13014230Y-15360150D01*
X13014230Y-15360150D02*
X12985658Y-15360150D01*
X12985658Y-15360150D02*
X12966610Y-15369674D01*
X12966610Y-15369674D02*
X12957087Y-15379198D01*
X13166610Y-15493484D02*
X13147563Y-15483960D01*
X13147563Y-15483960D02*
X13138039Y-15474436D01*
X13138039Y-15474436D02*
X13128515Y-15455388D01*
X13128515Y-15455388D02*
X13128515Y-15398246D01*
X13128515Y-15398246D02*
X13138039Y-15379198D01*
X13138039Y-15379198D02*
X13147563Y-15369674D01*
X13147563Y-15369674D02*
X13166610Y-15360150D01*
X13166610Y-15360150D02*
X13195182Y-15360150D01*
X13195182Y-15360150D02*
X13214230Y-15369674D01*
X13214230Y-15369674D02*
X13223753Y-15379198D01*
X13223753Y-15379198D02*
X13233277Y-15398246D01*
X13233277Y-15398246D02*
X13233277Y-15455388D01*
X13233277Y-15455388D02*
X13223753Y-15474436D01*
X13223753Y-15474436D02*
X13214230Y-15483960D01*
X13214230Y-15483960D02*
X13195182Y-15493484D01*
X13195182Y-15493484D02*
X13166610Y-15493484D01*
X13347563Y-15493484D02*
X13328515Y-15483960D01*
X13328515Y-15483960D02*
X13318991Y-15464912D01*
X13318991Y-15464912D02*
X13318991Y-15293484D01*
X13499944Y-15483960D02*
X13480896Y-15493484D01*
X13480896Y-15493484D02*
X13442801Y-15493484D01*
X13442801Y-15493484D02*
X13423753Y-15483960D01*
X13423753Y-15483960D02*
X13414230Y-15464912D01*
X13414230Y-15464912D02*
X13414230Y-15388722D01*
X13414230Y-15388722D02*
X13423753Y-15369674D01*
X13423753Y-15369674D02*
X13442801Y-15360150D01*
X13442801Y-15360150D02*
X13480896Y-15360150D01*
X13480896Y-15360150D02*
X13499944Y-15369674D01*
X13499944Y-15369674D02*
X13509468Y-15388722D01*
X13509468Y-15388722D02*
X13509468Y-15407769D01*
X13509468Y-15407769D02*
X13414230Y-15426817D01*
X13585658Y-15483960D02*
X13604706Y-15493484D01*
X13604706Y-15493484D02*
X13642801Y-15493484D01*
X13642801Y-15493484D02*
X13661849Y-15483960D01*
X13661849Y-15483960D02*
X13671372Y-15464912D01*
X13671372Y-15464912D02*
X13671372Y-15455388D01*
X13671372Y-15455388D02*
X13661849Y-15436341D01*
X13661849Y-15436341D02*
X13642801Y-15426817D01*
X13642801Y-15426817D02*
X13614230Y-15426817D01*
X13614230Y-15426817D02*
X13595182Y-15417293D01*
X13595182Y-15417293D02*
X13585658Y-15398246D01*
X13585658Y-15398246D02*
X13585658Y-15388722D01*
X13585658Y-15388722D02*
X13595182Y-15369674D01*
X13595182Y-15369674D02*
X13614230Y-15360150D01*
X13614230Y-15360150D02*
X13642801Y-15360150D01*
X13642801Y-15360150D02*
X13661849Y-15369674D01*
X13738039Y-15569674D02*
X13747563Y-15560150D01*
X13747563Y-15560150D02*
X13766611Y-15531579D01*
X13766611Y-15531579D02*
X13776134Y-15512531D01*
X13776134Y-15512531D02*
X13785658Y-15483960D01*
X13785658Y-15483960D02*
X13795182Y-15436341D01*
X13795182Y-15436341D02*
X13795182Y-15398246D01*
X13795182Y-15398246D02*
X13785658Y-15350627D01*
X13785658Y-15350627D02*
X13776134Y-15322055D01*
X13776134Y-15322055D02*
X13766611Y-15303008D01*
X13766611Y-15303008D02*
X13747563Y-15274436D01*
X13747563Y-15274436D02*
X13738039Y-15264912D01*
X14099944Y-15569674D02*
X14090420Y-15560150D01*
X14090420Y-15560150D02*
X14071372Y-15531579D01*
X14071372Y-15531579D02*
X14061849Y-15512531D01*
X14061849Y-15512531D02*
X14052325Y-15483960D01*
X14052325Y-15483960D02*
X14042801Y-15436341D01*
X14042801Y-15436341D02*
X14042801Y-15398246D01*
X14042801Y-15398246D02*
X14052325Y-15350627D01*
X14052325Y-15350627D02*
X14061849Y-15322055D01*
X14061849Y-15322055D02*
X14071372Y-15303008D01*
X14071372Y-15303008D02*
X14090420Y-15274436D01*
X14090420Y-15274436D02*
X14099944Y-15264912D01*
X14176134Y-15360150D02*
X14176134Y-15493484D01*
X14176134Y-15379198D02*
X14185658Y-15369674D01*
X14185658Y-15369674D02*
X14204706Y-15360150D01*
X14204706Y-15360150D02*
X14233277Y-15360150D01*
X14233277Y-15360150D02*
X14252325Y-15369674D01*
X14252325Y-15369674D02*
X14261849Y-15388722D01*
X14261849Y-15388722D02*
X14261849Y-15493484D01*
X14385658Y-15493484D02*
X14366611Y-15483960D01*
X14366611Y-15483960D02*
X14357087Y-15474436D01*
X14357087Y-15474436D02*
X14347563Y-15455388D01*
X14347563Y-15455388D02*
X14347563Y-15398246D01*
X14347563Y-15398246D02*
X14357087Y-15379198D01*
X14357087Y-15379198D02*
X14366611Y-15369674D01*
X14366611Y-15369674D02*
X14385658Y-15360150D01*
X14385658Y-15360150D02*
X14414230Y-15360150D01*
X14414230Y-15360150D02*
X14433277Y-15369674D01*
X14433277Y-15369674D02*
X14442801Y-15379198D01*
X14442801Y-15379198D02*
X14452325Y-15398246D01*
X14452325Y-15398246D02*
X14452325Y-15455388D01*
X14452325Y-15455388D02*
X14442801Y-15474436D01*
X14442801Y-15474436D02*
X14433277Y-15483960D01*
X14433277Y-15483960D02*
X14414230Y-15493484D01*
X14414230Y-15493484D02*
X14385658Y-15493484D01*
X14509468Y-15360150D02*
X14585658Y-15360150D01*
X14538039Y-15293484D02*
X14538039Y-15464912D01*
X14538039Y-15464912D02*
X14547563Y-15483960D01*
X14547563Y-15483960D02*
X14566611Y-15493484D01*
X14566611Y-15493484D02*
X14585658Y-15493484D01*
X14804706Y-15360150D02*
X14804706Y-15560150D01*
X14804706Y-15369674D02*
X14823753Y-15360150D01*
X14823753Y-15360150D02*
X14861849Y-15360150D01*
X14861849Y-15360150D02*
X14880896Y-15369674D01*
X14880896Y-15369674D02*
X14890420Y-15379198D01*
X14890420Y-15379198D02*
X14899944Y-15398246D01*
X14899944Y-15398246D02*
X14899944Y-15455388D01*
X14899944Y-15455388D02*
X14890420Y-15474436D01*
X14890420Y-15474436D02*
X14880896Y-15483960D01*
X14880896Y-15483960D02*
X14861849Y-15493484D01*
X14861849Y-15493484D02*
X14823753Y-15493484D01*
X14823753Y-15493484D02*
X14804706Y-15483960D01*
X15014230Y-15493484D02*
X14995182Y-15483960D01*
X14995182Y-15483960D02*
X14985658Y-15464912D01*
X14985658Y-15464912D02*
X14985658Y-15293484D01*
X15176134Y-15493484D02*
X15176134Y-15388722D01*
X15176134Y-15388722D02*
X15166611Y-15369674D01*
X15166611Y-15369674D02*
X15147563Y-15360150D01*
X15147563Y-15360150D02*
X15109468Y-15360150D01*
X15109468Y-15360150D02*
X15090420Y-15369674D01*
X15176134Y-15483960D02*
X15157087Y-15493484D01*
X15157087Y-15493484D02*
X15109468Y-15493484D01*
X15109468Y-15493484D02*
X15090420Y-15483960D01*
X15090420Y-15483960D02*
X15080896Y-15464912D01*
X15080896Y-15464912D02*
X15080896Y-15445865D01*
X15080896Y-15445865D02*
X15090420Y-15426817D01*
X15090420Y-15426817D02*
X15109468Y-15417293D01*
X15109468Y-15417293D02*
X15157087Y-15417293D01*
X15157087Y-15417293D02*
X15176134Y-15407769D01*
X15242801Y-15360150D02*
X15318992Y-15360150D01*
X15271373Y-15293484D02*
X15271373Y-15464912D01*
X15271373Y-15464912D02*
X15280896Y-15483960D01*
X15280896Y-15483960D02*
X15299944Y-15493484D01*
X15299944Y-15493484D02*
X15318992Y-15493484D01*
X15461849Y-15483960D02*
X15442801Y-15493484D01*
X15442801Y-15493484D02*
X15404706Y-15493484D01*
X15404706Y-15493484D02*
X15385658Y-15483960D01*
X15385658Y-15483960D02*
X15376134Y-15464912D01*
X15376134Y-15464912D02*
X15376134Y-15388722D01*
X15376134Y-15388722D02*
X15385658Y-15369674D01*
X15385658Y-15369674D02*
X15404706Y-15360150D01*
X15404706Y-15360150D02*
X15442801Y-15360150D01*
X15442801Y-15360150D02*
X15461849Y-15369674D01*
X15461849Y-15369674D02*
X15471373Y-15388722D01*
X15471373Y-15388722D02*
X15471373Y-15407769D01*
X15471373Y-15407769D02*
X15376134Y-15426817D01*
X15642801Y-15493484D02*
X15642801Y-15293484D01*
X15642801Y-15483960D02*
X15623754Y-15493484D01*
X15623754Y-15493484D02*
X15585658Y-15493484D01*
X15585658Y-15493484D02*
X15566611Y-15483960D01*
X15566611Y-15483960D02*
X15557087Y-15474436D01*
X15557087Y-15474436D02*
X15547563Y-15455388D01*
X15547563Y-15455388D02*
X15547563Y-15398246D01*
X15547563Y-15398246D02*
X15557087Y-15379198D01*
X15557087Y-15379198D02*
X15566611Y-15369674D01*
X15566611Y-15369674D02*
X15585658Y-15360150D01*
X15585658Y-15360150D02*
X15623754Y-15360150D01*
X15623754Y-15360150D02*
X15642801Y-15369674D01*
X15718992Y-15569674D02*
X15728515Y-15560150D01*
X15728515Y-15560150D02*
X15747563Y-15531579D01*
X15747563Y-15531579D02*
X15757087Y-15512531D01*
X15757087Y-15512531D02*
X15766611Y-15483960D01*
X15766611Y-15483960D02*
X15776134Y-15436341D01*
X15776134Y-15436341D02*
X15776134Y-15398246D01*
X15776134Y-15398246D02*
X15766611Y-15350627D01*
X15766611Y-15350627D02*
X15757087Y-15322055D01*
X15757087Y-15322055D02*
X15747563Y-15303008D01*
X15747563Y-15303008D02*
X15728515Y-15274436D01*
X15728515Y-15274436D02*
X15718992Y-15264912D01*
X8772500Y-15692000D02*
G75*
G02*
X8572500Y-15692000I-100000J0D01*
G01*
X8572500Y-15692000D02*
G75*
G02*
X8772500Y-15692000I100000J0D01*
G01*
X9023753Y-15602531D02*
X9033277Y-15593008D01*
X9033277Y-15593008D02*
X9052324Y-15583484D01*
X9052324Y-15583484D02*
X9099944Y-15583484D01*
X9099944Y-15583484D02*
X9118991Y-15593008D01*
X9118991Y-15593008D02*
X9128515Y-15602531D01*
X9128515Y-15602531D02*
X9138039Y-15621579D01*
X9138039Y-15621579D02*
X9138039Y-15640627D01*
X9138039Y-15640627D02*
X9128515Y-15669198D01*
X9128515Y-15669198D02*
X9014229Y-15783484D01*
X9014229Y-15783484D02*
X9138039Y-15783484D01*
X9223753Y-15764436D02*
X9233277Y-15773960D01*
X9233277Y-15773960D02*
X9223753Y-15783484D01*
X9223753Y-15783484D02*
X9214229Y-15773960D01*
X9214229Y-15773960D02*
X9223753Y-15764436D01*
X9223753Y-15764436D02*
X9223753Y-15783484D01*
X9357086Y-15583484D02*
X9376134Y-15583484D01*
X9376134Y-15583484D02*
X9395182Y-15593008D01*
X9395182Y-15593008D02*
X9404705Y-15602531D01*
X9404705Y-15602531D02*
X9414229Y-15621579D01*
X9414229Y-15621579D02*
X9423753Y-15659674D01*
X9423753Y-15659674D02*
X9423753Y-15707293D01*
X9423753Y-15707293D02*
X9414229Y-15745388D01*
X9414229Y-15745388D02*
X9404705Y-15764436D01*
X9404705Y-15764436D02*
X9395182Y-15773960D01*
X9395182Y-15773960D02*
X9376134Y-15783484D01*
X9376134Y-15783484D02*
X9357086Y-15783484D01*
X9357086Y-15783484D02*
X9338039Y-15773960D01*
X9338039Y-15773960D02*
X9328515Y-15764436D01*
X9328515Y-15764436D02*
X9318991Y-15745388D01*
X9318991Y-15745388D02*
X9309467Y-15707293D01*
X9309467Y-15707293D02*
X9309467Y-15659674D01*
X9309467Y-15659674D02*
X9318991Y-15621579D01*
X9318991Y-15621579D02*
X9328515Y-15602531D01*
X9328515Y-15602531D02*
X9338039Y-15593008D01*
X9338039Y-15593008D02*
X9357086Y-15583484D01*
X9547563Y-15583484D02*
X9566610Y-15583484D01*
X9566610Y-15583484D02*
X9585658Y-15593008D01*
X9585658Y-15593008D02*
X9595182Y-15602531D01*
X9595182Y-15602531D02*
X9604705Y-15621579D01*
X9604705Y-15621579D02*
X9614229Y-15659674D01*
X9614229Y-15659674D02*
X9614229Y-15707293D01*
X9614229Y-15707293D02*
X9604705Y-15745388D01*
X9604705Y-15745388D02*
X9595182Y-15764436D01*
X9595182Y-15764436D02*
X9585658Y-15773960D01*
X9585658Y-15773960D02*
X9566610Y-15783484D01*
X9566610Y-15783484D02*
X9547563Y-15783484D01*
X9547563Y-15783484D02*
X9528515Y-15773960D01*
X9528515Y-15773960D02*
X9518991Y-15764436D01*
X9518991Y-15764436D02*
X9509467Y-15745388D01*
X9509467Y-15745388D02*
X9499944Y-15707293D01*
X9499944Y-15707293D02*
X9499944Y-15659674D01*
X9499944Y-15659674D02*
X9509467Y-15621579D01*
X9509467Y-15621579D02*
X9518991Y-15602531D01*
X9518991Y-15602531D02*
X9528515Y-15593008D01*
X9528515Y-15593008D02*
X9547563Y-15583484D01*
X9738039Y-15583484D02*
X9757086Y-15583484D01*
X9757086Y-15583484D02*
X9776134Y-15593008D01*
X9776134Y-15593008D02*
X9785658Y-15602531D01*
X9785658Y-15602531D02*
X9795182Y-15621579D01*
X9795182Y-15621579D02*
X9804705Y-15659674D01*
X9804705Y-15659674D02*
X9804705Y-15707293D01*
X9804705Y-15707293D02*
X9795182Y-15745388D01*
X9795182Y-15745388D02*
X9785658Y-15764436D01*
X9785658Y-15764436D02*
X9776134Y-15773960D01*
X9776134Y-15773960D02*
X9757086Y-15783484D01*
X9757086Y-15783484D02*
X9738039Y-15783484D01*
X9738039Y-15783484D02*
X9718991Y-15773960D01*
X9718991Y-15773960D02*
X9709467Y-15764436D01*
X9709467Y-15764436D02*
X9699944Y-15745388D01*
X9699944Y-15745388D02*
X9690420Y-15707293D01*
X9690420Y-15707293D02*
X9690420Y-15659674D01*
X9690420Y-15659674D02*
X9699944Y-15621579D01*
X9699944Y-15621579D02*
X9709467Y-15602531D01*
X9709467Y-15602531D02*
X9718991Y-15593008D01*
X9718991Y-15593008D02*
X9738039Y-15583484D01*
X9890420Y-15783484D02*
X9890420Y-15650150D01*
X9890420Y-15669198D02*
X9899944Y-15659674D01*
X9899944Y-15659674D02*
X9918991Y-15650150D01*
X9918991Y-15650150D02*
X9947563Y-15650150D01*
X9947563Y-15650150D02*
X9966610Y-15659674D01*
X9966610Y-15659674D02*
X9976134Y-15678722D01*
X9976134Y-15678722D02*
X9976134Y-15783484D01*
X9976134Y-15678722D02*
X9985658Y-15659674D01*
X9985658Y-15659674D02*
X10004705Y-15650150D01*
X10004705Y-15650150D02*
X10033277Y-15650150D01*
X10033277Y-15650150D02*
X10052325Y-15659674D01*
X10052325Y-15659674D02*
X10061848Y-15678722D01*
X10061848Y-15678722D02*
X10061848Y-15783484D01*
X10157086Y-15783484D02*
X10157086Y-15650150D01*
X10157086Y-15669198D02*
X10166610Y-15659674D01*
X10166610Y-15659674D02*
X10185658Y-15650150D01*
X10185658Y-15650150D02*
X10214229Y-15650150D01*
X10214229Y-15650150D02*
X10233277Y-15659674D01*
X10233277Y-15659674D02*
X10242801Y-15678722D01*
X10242801Y-15678722D02*
X10242801Y-15783484D01*
X10242801Y-15678722D02*
X10252325Y-15659674D01*
X10252325Y-15659674D02*
X10271372Y-15650150D01*
X10271372Y-15650150D02*
X10299944Y-15650150D01*
X10299944Y-15650150D02*
X10318991Y-15659674D01*
X10318991Y-15659674D02*
X10328515Y-15678722D01*
X10328515Y-15678722D02*
X10328515Y-15783484D01*
X10718991Y-15573960D02*
X10547563Y-15831103D01*
X10976134Y-15583484D02*
X10995182Y-15583484D01*
X10995182Y-15583484D02*
X11014229Y-15593008D01*
X11014229Y-15593008D02*
X11023753Y-15602531D01*
X11023753Y-15602531D02*
X11033277Y-15621579D01*
X11033277Y-15621579D02*
X11042801Y-15659674D01*
X11042801Y-15659674D02*
X11042801Y-15707293D01*
X11042801Y-15707293D02*
X11033277Y-15745388D01*
X11033277Y-15745388D02*
X11023753Y-15764436D01*
X11023753Y-15764436D02*
X11014229Y-15773960D01*
X11014229Y-15773960D02*
X10995182Y-15783484D01*
X10995182Y-15783484D02*
X10976134Y-15783484D01*
X10976134Y-15783484D02*
X10957087Y-15773960D01*
X10957087Y-15773960D02*
X10947563Y-15764436D01*
X10947563Y-15764436D02*
X10938039Y-15745388D01*
X10938039Y-15745388D02*
X10928515Y-15707293D01*
X10928515Y-15707293D02*
X10928515Y-15659674D01*
X10928515Y-15659674D02*
X10938039Y-15621579D01*
X10938039Y-15621579D02*
X10947563Y-15602531D01*
X10947563Y-15602531D02*
X10957087Y-15593008D01*
X10957087Y-15593008D02*
X10976134Y-15583484D01*
X11128515Y-15764436D02*
X11138039Y-15773960D01*
X11138039Y-15773960D02*
X11128515Y-15783484D01*
X11128515Y-15783484D02*
X11118991Y-15773960D01*
X11118991Y-15773960D02*
X11128515Y-15764436D01*
X11128515Y-15764436D02*
X11128515Y-15783484D01*
X11261848Y-15583484D02*
X11280896Y-15583484D01*
X11280896Y-15583484D02*
X11299944Y-15593008D01*
X11299944Y-15593008D02*
X11309467Y-15602531D01*
X11309467Y-15602531D02*
X11318991Y-15621579D01*
X11318991Y-15621579D02*
X11328515Y-15659674D01*
X11328515Y-15659674D02*
X11328515Y-15707293D01*
X11328515Y-15707293D02*
X11318991Y-15745388D01*
X11318991Y-15745388D02*
X11309467Y-15764436D01*
X11309467Y-15764436D02*
X11299944Y-15773960D01*
X11299944Y-15773960D02*
X11280896Y-15783484D01*
X11280896Y-15783484D02*
X11261848Y-15783484D01*
X11261848Y-15783484D02*
X11242801Y-15773960D01*
X11242801Y-15773960D02*
X11233277Y-15764436D01*
X11233277Y-15764436D02*
X11223753Y-15745388D01*
X11223753Y-15745388D02*
X11214229Y-15707293D01*
X11214229Y-15707293D02*
X11214229Y-15659674D01*
X11214229Y-15659674D02*
X11223753Y-15621579D01*
X11223753Y-15621579D02*
X11233277Y-15602531D01*
X11233277Y-15602531D02*
X11242801Y-15593008D01*
X11242801Y-15593008D02*
X11261848Y-15583484D01*
X11395182Y-15583484D02*
X11528515Y-15583484D01*
X11528515Y-15583484D02*
X11442801Y-15783484D01*
X11633277Y-15669198D02*
X11614229Y-15659674D01*
X11614229Y-15659674D02*
X11604706Y-15650150D01*
X11604706Y-15650150D02*
X11595182Y-15631103D01*
X11595182Y-15631103D02*
X11595182Y-15621579D01*
X11595182Y-15621579D02*
X11604706Y-15602531D01*
X11604706Y-15602531D02*
X11614229Y-15593008D01*
X11614229Y-15593008D02*
X11633277Y-15583484D01*
X11633277Y-15583484D02*
X11671372Y-15583484D01*
X11671372Y-15583484D02*
X11690420Y-15593008D01*
X11690420Y-15593008D02*
X11699944Y-15602531D01*
X11699944Y-15602531D02*
X11709467Y-15621579D01*
X11709467Y-15621579D02*
X11709467Y-15631103D01*
X11709467Y-15631103D02*
X11699944Y-15650150D01*
X11699944Y-15650150D02*
X11690420Y-15659674D01*
X11690420Y-15659674D02*
X11671372Y-15669198D01*
X11671372Y-15669198D02*
X11633277Y-15669198D01*
X11633277Y-15669198D02*
X11614229Y-15678722D01*
X11614229Y-15678722D02*
X11604706Y-15688246D01*
X11604706Y-15688246D02*
X11595182Y-15707293D01*
X11595182Y-15707293D02*
X11595182Y-15745388D01*
X11595182Y-15745388D02*
X11604706Y-15764436D01*
X11604706Y-15764436D02*
X11614229Y-15773960D01*
X11614229Y-15773960D02*
X11633277Y-15783484D01*
X11633277Y-15783484D02*
X11671372Y-15783484D01*
X11671372Y-15783484D02*
X11690420Y-15773960D01*
X11690420Y-15773960D02*
X11699944Y-15764436D01*
X11699944Y-15764436D02*
X11709467Y-15745388D01*
X11709467Y-15745388D02*
X11709467Y-15707293D01*
X11709467Y-15707293D02*
X11699944Y-15688246D01*
X11699944Y-15688246D02*
X11690420Y-15678722D01*
X11690420Y-15678722D02*
X11671372Y-15669198D01*
X11776134Y-15583484D02*
X11909467Y-15583484D01*
X11909467Y-15583484D02*
X11823753Y-15783484D01*
X11976134Y-15583484D02*
X11976134Y-15621579D01*
X12052325Y-15583484D02*
X12052325Y-15621579D01*
X12347563Y-15859674D02*
X12338039Y-15850150D01*
X12338039Y-15850150D02*
X12318991Y-15821579D01*
X12318991Y-15821579D02*
X12309468Y-15802531D01*
X12309468Y-15802531D02*
X12299944Y-15773960D01*
X12299944Y-15773960D02*
X12290420Y-15726341D01*
X12290420Y-15726341D02*
X12290420Y-15688246D01*
X12290420Y-15688246D02*
X12299944Y-15640627D01*
X12299944Y-15640627D02*
X12309468Y-15612055D01*
X12309468Y-15612055D02*
X12318991Y-15593008D01*
X12318991Y-15593008D02*
X12338039Y-15564436D01*
X12338039Y-15564436D02*
X12347563Y-15554912D01*
X12528515Y-15783484D02*
X12414229Y-15783484D01*
X12471372Y-15783484D02*
X12471372Y-15583484D01*
X12471372Y-15583484D02*
X12452325Y-15612055D01*
X12452325Y-15612055D02*
X12433277Y-15631103D01*
X12433277Y-15631103D02*
X12414229Y-15640627D01*
X12766610Y-15783484D02*
X12766610Y-15583484D01*
X12852325Y-15783484D02*
X12852325Y-15678722D01*
X12852325Y-15678722D02*
X12842801Y-15659674D01*
X12842801Y-15659674D02*
X12823753Y-15650150D01*
X12823753Y-15650150D02*
X12795182Y-15650150D01*
X12795182Y-15650150D02*
X12776134Y-15659674D01*
X12776134Y-15659674D02*
X12766610Y-15669198D01*
X12976134Y-15783484D02*
X12957087Y-15773960D01*
X12957087Y-15773960D02*
X12947563Y-15764436D01*
X12947563Y-15764436D02*
X12938039Y-15745388D01*
X12938039Y-15745388D02*
X12938039Y-15688246D01*
X12938039Y-15688246D02*
X12947563Y-15669198D01*
X12947563Y-15669198D02*
X12957087Y-15659674D01*
X12957087Y-15659674D02*
X12976134Y-15650150D01*
X12976134Y-15650150D02*
X13004706Y-15650150D01*
X13004706Y-15650150D02*
X13023753Y-15659674D01*
X13023753Y-15659674D02*
X13033277Y-15669198D01*
X13033277Y-15669198D02*
X13042801Y-15688246D01*
X13042801Y-15688246D02*
X13042801Y-15745388D01*
X13042801Y-15745388D02*
X13033277Y-15764436D01*
X13033277Y-15764436D02*
X13023753Y-15773960D01*
X13023753Y-15773960D02*
X13004706Y-15783484D01*
X13004706Y-15783484D02*
X12976134Y-15783484D01*
X13157087Y-15783484D02*
X13138039Y-15773960D01*
X13138039Y-15773960D02*
X13128515Y-15754912D01*
X13128515Y-15754912D02*
X13128515Y-15583484D01*
X13309468Y-15773960D02*
X13290420Y-15783484D01*
X13290420Y-15783484D02*
X13252325Y-15783484D01*
X13252325Y-15783484D02*
X13233277Y-15773960D01*
X13233277Y-15773960D02*
X13223753Y-15754912D01*
X13223753Y-15754912D02*
X13223753Y-15678722D01*
X13223753Y-15678722D02*
X13233277Y-15659674D01*
X13233277Y-15659674D02*
X13252325Y-15650150D01*
X13252325Y-15650150D02*
X13290420Y-15650150D01*
X13290420Y-15650150D02*
X13309468Y-15659674D01*
X13309468Y-15659674D02*
X13318991Y-15678722D01*
X13318991Y-15678722D02*
X13318991Y-15697769D01*
X13318991Y-15697769D02*
X13223753Y-15716817D01*
X13385658Y-15859674D02*
X13395182Y-15850150D01*
X13395182Y-15850150D02*
X13414230Y-15821579D01*
X13414230Y-15821579D02*
X13423753Y-15802531D01*
X13423753Y-15802531D02*
X13433277Y-15773960D01*
X13433277Y-15773960D02*
X13442801Y-15726341D01*
X13442801Y-15726341D02*
X13442801Y-15688246D01*
X13442801Y-15688246D02*
X13433277Y-15640627D01*
X13433277Y-15640627D02*
X13423753Y-15612055D01*
X13423753Y-15612055D02*
X13414230Y-15593008D01*
X13414230Y-15593008D02*
X13395182Y-15564436D01*
X13395182Y-15564436D02*
X13385658Y-15554912D01*
X13747563Y-15859674D02*
X13738039Y-15850150D01*
X13738039Y-15850150D02*
X13718991Y-15821579D01*
X13718991Y-15821579D02*
X13709468Y-15802531D01*
X13709468Y-15802531D02*
X13699944Y-15773960D01*
X13699944Y-15773960D02*
X13690420Y-15726341D01*
X13690420Y-15726341D02*
X13690420Y-15688246D01*
X13690420Y-15688246D02*
X13699944Y-15640627D01*
X13699944Y-15640627D02*
X13709468Y-15612055D01*
X13709468Y-15612055D02*
X13718991Y-15593008D01*
X13718991Y-15593008D02*
X13738039Y-15564436D01*
X13738039Y-15564436D02*
X13747563Y-15554912D01*
X13823753Y-15650150D02*
X13823753Y-15783484D01*
X13823753Y-15669198D02*
X13833277Y-15659674D01*
X13833277Y-15659674D02*
X13852325Y-15650150D01*
X13852325Y-15650150D02*
X13880896Y-15650150D01*
X13880896Y-15650150D02*
X13899944Y-15659674D01*
X13899944Y-15659674D02*
X13909468Y-15678722D01*
X13909468Y-15678722D02*
X13909468Y-15783484D01*
X14033277Y-15783484D02*
X14014230Y-15773960D01*
X14014230Y-15773960D02*
X14004706Y-15764436D01*
X14004706Y-15764436D02*
X13995182Y-15745388D01*
X13995182Y-15745388D02*
X13995182Y-15688246D01*
X13995182Y-15688246D02*
X14004706Y-15669198D01*
X14004706Y-15669198D02*
X14014230Y-15659674D01*
X14014230Y-15659674D02*
X14033277Y-15650150D01*
X14033277Y-15650150D02*
X14061849Y-15650150D01*
X14061849Y-15650150D02*
X14080896Y-15659674D01*
X14080896Y-15659674D02*
X14090420Y-15669198D01*
X14090420Y-15669198D02*
X14099944Y-15688246D01*
X14099944Y-15688246D02*
X14099944Y-15745388D01*
X14099944Y-15745388D02*
X14090420Y-15764436D01*
X14090420Y-15764436D02*
X14080896Y-15773960D01*
X14080896Y-15773960D02*
X14061849Y-15783484D01*
X14061849Y-15783484D02*
X14033277Y-15783484D01*
X14157087Y-15650150D02*
X14233277Y-15650150D01*
X14185658Y-15583484D02*
X14185658Y-15754912D01*
X14185658Y-15754912D02*
X14195182Y-15773960D01*
X14195182Y-15773960D02*
X14214230Y-15783484D01*
X14214230Y-15783484D02*
X14233277Y-15783484D01*
X14452325Y-15650150D02*
X14452325Y-15850150D01*
X14452325Y-15659674D02*
X14471372Y-15650150D01*
X14471372Y-15650150D02*
X14509468Y-15650150D01*
X14509468Y-15650150D02*
X14528515Y-15659674D01*
X14528515Y-15659674D02*
X14538039Y-15669198D01*
X14538039Y-15669198D02*
X14547563Y-15688246D01*
X14547563Y-15688246D02*
X14547563Y-15745388D01*
X14547563Y-15745388D02*
X14538039Y-15764436D01*
X14538039Y-15764436D02*
X14528515Y-15773960D01*
X14528515Y-15773960D02*
X14509468Y-15783484D01*
X14509468Y-15783484D02*
X14471372Y-15783484D01*
X14471372Y-15783484D02*
X14452325Y-15773960D01*
X14661849Y-15783484D02*
X14642801Y-15773960D01*
X14642801Y-15773960D02*
X14633277Y-15754912D01*
X14633277Y-15754912D02*
X14633277Y-15583484D01*
X14823753Y-15783484D02*
X14823753Y-15678722D01*
X14823753Y-15678722D02*
X14814230Y-15659674D01*
X14814230Y-15659674D02*
X14795182Y-15650150D01*
X14795182Y-15650150D02*
X14757087Y-15650150D01*
X14757087Y-15650150D02*
X14738039Y-15659674D01*
X14823753Y-15773960D02*
X14804706Y-15783484D01*
X14804706Y-15783484D02*
X14757087Y-15783484D01*
X14757087Y-15783484D02*
X14738039Y-15773960D01*
X14738039Y-15773960D02*
X14728515Y-15754912D01*
X14728515Y-15754912D02*
X14728515Y-15735865D01*
X14728515Y-15735865D02*
X14738039Y-15716817D01*
X14738039Y-15716817D02*
X14757087Y-15707293D01*
X14757087Y-15707293D02*
X14804706Y-15707293D01*
X14804706Y-15707293D02*
X14823753Y-15697769D01*
X14890420Y-15650150D02*
X14966611Y-15650150D01*
X14918992Y-15583484D02*
X14918992Y-15754912D01*
X14918992Y-15754912D02*
X14928515Y-15773960D01*
X14928515Y-15773960D02*
X14947563Y-15783484D01*
X14947563Y-15783484D02*
X14966611Y-15783484D01*
X15109468Y-15773960D02*
X15090420Y-15783484D01*
X15090420Y-15783484D02*
X15052325Y-15783484D01*
X15052325Y-15783484D02*
X15033277Y-15773960D01*
X15033277Y-15773960D02*
X15023753Y-15754912D01*
X15023753Y-15754912D02*
X15023753Y-15678722D01*
X15023753Y-15678722D02*
X15033277Y-15659674D01*
X15033277Y-15659674D02*
X15052325Y-15650150D01*
X15052325Y-15650150D02*
X15090420Y-15650150D01*
X15090420Y-15650150D02*
X15109468Y-15659674D01*
X15109468Y-15659674D02*
X15118992Y-15678722D01*
X15118992Y-15678722D02*
X15118992Y-15697769D01*
X15118992Y-15697769D02*
X15023753Y-15716817D01*
X15290420Y-15783484D02*
X15290420Y-15583484D01*
X15290420Y-15773960D02*
X15271373Y-15783484D01*
X15271373Y-15783484D02*
X15233277Y-15783484D01*
X15233277Y-15783484D02*
X15214230Y-15773960D01*
X15214230Y-15773960D02*
X15204706Y-15764436D01*
X15204706Y-15764436D02*
X15195182Y-15745388D01*
X15195182Y-15745388D02*
X15195182Y-15688246D01*
X15195182Y-15688246D02*
X15204706Y-15669198D01*
X15204706Y-15669198D02*
X15214230Y-15659674D01*
X15214230Y-15659674D02*
X15233277Y-15650150D01*
X15233277Y-15650150D02*
X15271373Y-15650150D01*
X15271373Y-15650150D02*
X15290420Y-15659674D01*
X15366611Y-15859674D02*
X15376134Y-15850150D01*
X15376134Y-15850150D02*
X15395182Y-15821579D01*
X15395182Y-15821579D02*
X15404706Y-15802531D01*
X15404706Y-15802531D02*
X15414230Y-15773960D01*
X15414230Y-15773960D02*
X15423753Y-15726341D01*
X15423753Y-15726341D02*
X15423753Y-15688246D01*
X15423753Y-15688246D02*
X15414230Y-15640627D01*
X15414230Y-15640627D02*
X15404706Y-15612055D01*
X15404706Y-15612055D02*
X15395182Y-15593008D01*
X15395182Y-15593008D02*
X15376134Y-15564436D01*
X15376134Y-15564436D02*
X15366611Y-15554912D01*
M02*
