%TF.GenerationSoftware,KiCad,Pcbnew,8.0.4+dfsg-1*%
%TF.CreationDate,2025-02-20T19:36:53-08:00*%
%TF.ProjectId,Audio_in_usd_sound_rp_pico,41756469-6f5f-4696-9e5f-7573645f736f,v0.3.0*%
%TF.SameCoordinates,Original*%
%TF.FileFunction,Soldermask,Bot*%
%TF.FilePolarity,Negative*%
%FSLAX46Y46*%
G04 Gerber Fmt 4.6, Leading zero omitted, Abs format (unit mm)*
G04 Created by KiCad (PCBNEW 8.0.4+dfsg-1) date 2025-02-20 19:36:53*
%MOMM*%
%LPD*%
G01*
G04 APERTURE LIST*
G04 Aperture macros list*
%AMRoundRect*
0 Rectangle with rounded corners*
0 $1 Rounding radius*
0 $2 $3 $4 $5 $6 $7 $8 $9 X,Y pos of 4 corners*
0 Add a 4 corners polygon primitive as box body*
4,1,4,$2,$3,$4,$5,$6,$7,$8,$9,$2,$3,0*
0 Add four circle primitives for the rounded corners*
1,1,$1+$1,$2,$3*
1,1,$1+$1,$4,$5*
1,1,$1+$1,$6,$7*
1,1,$1+$1,$8,$9*
0 Add four rect primitives between the rounded corners*
20,1,$1+$1,$2,$3,$4,$5,0*
20,1,$1+$1,$4,$5,$6,$7,0*
20,1,$1+$1,$6,$7,$8,$9,0*
20,1,$1+$1,$8,$9,$2,$3,0*%
%AMFreePoly0*
4,1,19,0.500000,-0.750000,0.000000,-0.750000,0.000000,-0.744911,-0.071157,-0.744911,-0.207708,-0.704816,-0.327430,-0.627875,-0.420627,-0.520320,-0.479746,-0.390866,-0.500000,-0.250000,-0.500000,0.250000,-0.479746,0.390866,-0.420627,0.520320,-0.327430,0.627875,-0.207708,0.704816,-0.071157,0.744911,0.000000,0.744911,0.000000,0.750000,0.500000,0.750000,0.500000,-0.750000,0.500000,-0.750000,
$1*%
%AMFreePoly1*
4,1,19,0.000000,0.744911,0.071157,0.744911,0.207708,0.704816,0.327430,0.627875,0.420627,0.520320,0.479746,0.390866,0.500000,0.250000,0.500000,-0.250000,0.479746,-0.390866,0.420627,-0.520320,0.327430,-0.627875,0.207708,-0.704816,0.071157,-0.744911,0.000000,-0.744911,0.000000,-0.750000,-0.500000,-0.750000,-0.500000,0.750000,0.000000,0.750000,0.000000,0.744911,0.000000,0.744911,
$1*%
G04 Aperture macros list end*
%ADD10C,1.700000*%
%ADD11C,3.556000*%
%ADD12C,3.810000*%
%ADD13C,1.000000*%
%ADD14R,1.050000X1.500000*%
%ADD15O,1.050000X1.500000*%
%ADD16C,2.000000*%
%ADD17R,1.700000X1.700000*%
%ADD18O,1.700000X1.700000*%
%ADD19R,1.800000X1.800000*%
%ADD20C,1.800000*%
%ADD21RoundRect,0.250000X-1.000000X1.000000X-1.000000X-1.000000X1.000000X-1.000000X1.000000X1.000000X0*%
%ADD22C,2.500000*%
%ADD23C,1.500000*%
%ADD24RoundRect,0.248400X-0.651600X-0.651600X0.651600X-0.651600X0.651600X0.651600X-0.651600X0.651600X0*%
%ADD25C,1.200000*%
%ADD26O,1.200000X1.600000*%
%ADD27R,2.000000X2.000000*%
%ADD28RoundRect,0.250000X1.000000X1.000000X-1.000000X1.000000X-1.000000X-1.000000X1.000000X-1.000000X0*%
%ADD29C,1.620000*%
%ADD30O,1.800000X1.800000*%
%ADD31FreePoly0,180.000000*%
%ADD32FreePoly1,180.000000*%
%ADD33FreePoly0,90.000000*%
%ADD34FreePoly1,90.000000*%
%ADD35FreePoly0,0.000000*%
%ADD36FreePoly1,0.000000*%
%ADD37FreePoly0,270.000000*%
%ADD38FreePoly1,270.000000*%
G04 APERTURE END LIST*
D10*
%TO.C,J17*%
X178590000Y-110245000D03*
X184590000Y-110245000D03*
%TD*%
%TO.C,J16*%
X182080000Y-143815000D03*
X182080000Y-137815000D03*
%TD*%
%TO.C,J15*%
X93900000Y-51445000D03*
X93900000Y-57445000D03*
%TD*%
%TO.C,J12*%
X182400000Y-51275000D03*
X182400000Y-57275000D03*
%TD*%
%TO.C,J1*%
X170960000Y-51275000D03*
X170960000Y-57275000D03*
%TD*%
D11*
%TO.C,J14*%
X104520000Y-107265000D03*
D12*
X101345000Y-104090000D03*
X101345000Y-110440000D03*
X107695000Y-104090000D03*
X107695000Y-110440000D03*
%TD*%
D13*
%TO.C,TP3*%
X160730000Y-57045000D03*
%TD*%
%TO.C,TP4*%
X160780000Y-60065000D03*
%TD*%
%TO.C,TP25*%
X167466000Y-90249000D03*
%TD*%
D14*
%TO.C,U15*%
X203300000Y-98585000D03*
D15*
X204570000Y-98585000D03*
X205840000Y-98585000D03*
%TD*%
D13*
%TO.C,TP11*%
X177590000Y-82845000D03*
%TD*%
%TO.C,TP16*%
X176690000Y-75585000D03*
%TD*%
%TO.C,TP:C2*%
X145772500Y-109290000D03*
%TD*%
%TO.C,TP:C1*%
X141772500Y-109340000D03*
%TD*%
%TO.C,TP14*%
X183610000Y-75515000D03*
%TD*%
D16*
%TO.C,TP10*%
X163534000Y-105867000D03*
%TD*%
D13*
%TO.C,TP5*%
X160750000Y-63195000D03*
%TD*%
D17*
%TO.C,Je3*%
X170646000Y-100279000D03*
D18*
X170646000Y-97739000D03*
X170646000Y-95199000D03*
X170646000Y-92659000D03*
%TD*%
D19*
%TO.C,D2*%
X89410000Y-142600000D03*
D20*
X91950000Y-142600000D03*
%TD*%
D16*
%TO.C,TP12*%
X159530000Y-84045000D03*
%TD*%
D13*
%TO.C,TP1*%
X164230000Y-49375000D03*
%TD*%
D19*
%TO.C,IR-PD1*%
X140710000Y-105765000D03*
D20*
X140710000Y-103225000D03*
%TD*%
D21*
%TO.C,T2*%
X148640000Y-129055000D03*
D22*
X148640000Y-134135000D03*
X148640000Y-139215000D03*
X148640000Y-144295000D03*
%TD*%
D23*
%TO.C,R37*%
X146340000Y-50085000D03*
X142940000Y-50085000D03*
%TD*%
D13*
%TO.C,TP:C3*%
X149772500Y-109290000D03*
%TD*%
%TO.C,TP15*%
X180010000Y-75585000D03*
%TD*%
D11*
%TO.C,J8*%
X154165000Y-53210000D03*
D12*
X150990000Y-50035000D03*
X150990000Y-56385000D03*
X157340000Y-50035000D03*
X157340000Y-56385000D03*
%TD*%
D17*
%TO.C,J4*%
X133880000Y-48995000D03*
D18*
X133880000Y-51535000D03*
X133880000Y-54075000D03*
X133880000Y-56615000D03*
X133880000Y-59155000D03*
X133880000Y-61695000D03*
X133880000Y-64235000D03*
X133880000Y-66775000D03*
X133880000Y-69315000D03*
X133880000Y-71855000D03*
X133880000Y-74395000D03*
X133880000Y-76935000D03*
X133880000Y-79475000D03*
X133880000Y-82015000D03*
X133880000Y-84555000D03*
X133880000Y-87095000D03*
X133880000Y-89635000D03*
X133880000Y-92175000D03*
X133880000Y-94715000D03*
X133880000Y-97255000D03*
X136420000Y-97255000D03*
X136420000Y-94715000D03*
X136420000Y-92175000D03*
X136420000Y-89635000D03*
X136420000Y-87095000D03*
X136420000Y-84555000D03*
X136420000Y-82015000D03*
X136420000Y-79475000D03*
X136420000Y-76935000D03*
X136420000Y-74395000D03*
X136420000Y-71855000D03*
X136420000Y-69315000D03*
X136420000Y-66775000D03*
X136420000Y-64235000D03*
X136420000Y-61695000D03*
X136420000Y-59155000D03*
X136420000Y-56615000D03*
X136420000Y-54075000D03*
X136420000Y-51535000D03*
X136420000Y-48995000D03*
%TD*%
D17*
%TO.C,Je2*%
X90640000Y-81235000D03*
D18*
X90640000Y-83775000D03*
X90640000Y-86315000D03*
X90640000Y-88855000D03*
%TD*%
D11*
%TO.C,J11*%
X182205000Y-98620000D03*
D12*
X179030000Y-95445000D03*
X179030000Y-101795000D03*
X185380000Y-95445000D03*
X185380000Y-101795000D03*
%TD*%
D17*
%TO.C,J6*%
X111610000Y-49000000D03*
D18*
X111610000Y-51540000D03*
X111610000Y-54080000D03*
X111610000Y-56620000D03*
X111610000Y-59160000D03*
X111610000Y-61700000D03*
X111610000Y-64240000D03*
X111610000Y-66780000D03*
X111610000Y-69320000D03*
X111610000Y-71860000D03*
X111610000Y-74400000D03*
X111610000Y-76940000D03*
X111610000Y-79480000D03*
X111610000Y-82020000D03*
X111610000Y-84560000D03*
X111610000Y-87100000D03*
X111610000Y-89640000D03*
X111610000Y-92180000D03*
X111610000Y-94720000D03*
X111610000Y-97260000D03*
%TD*%
D24*
%TO.C,U6*%
X94820000Y-143060000D03*
D20*
X97360000Y-143060000D03*
X99900000Y-143060000D03*
%TD*%
D25*
%TO.C,U16*%
X152020000Y-70065000D03*
D26*
X154560000Y-72605000D03*
D25*
X154560000Y-67525000D03*
X157100000Y-70065000D03*
%TD*%
D13*
%TO.C,TP18*%
X171250000Y-64045000D03*
%TD*%
D27*
%TO.C,LS1*%
X90810000Y-126275000D03*
D16*
X98410000Y-126275000D03*
%TD*%
D13*
%TO.C,TP13*%
X186930000Y-75555000D03*
%TD*%
D17*
%TO.C,J5*%
X129380000Y-48995000D03*
D18*
X129380000Y-51535000D03*
X129380000Y-54075000D03*
X129380000Y-56615000D03*
X129380000Y-59155000D03*
X129380000Y-61695000D03*
X129380000Y-64235000D03*
X129380000Y-66775000D03*
X129380000Y-69315000D03*
X129380000Y-71855000D03*
X129380000Y-74395000D03*
X129380000Y-76935000D03*
X129380000Y-79475000D03*
X129380000Y-82015000D03*
X129380000Y-84555000D03*
X129380000Y-87095000D03*
X129380000Y-89635000D03*
X129380000Y-92175000D03*
X129380000Y-94715000D03*
X129380000Y-97255000D03*
%TD*%
D13*
%TO.C,TP26*%
X157814000Y-91011000D03*
%TD*%
%TO.C,TP2*%
X164180000Y-54655000D03*
%TD*%
%TO.C,TP:R1*%
X157222500Y-111790000D03*
%TD*%
%TO.C,TP:R3*%
X157297500Y-119765000D03*
%TD*%
%TO.C,TP:R2*%
X157222500Y-115765000D03*
%TD*%
D28*
%TO.C,T1*%
X173240000Y-130205000D03*
D22*
X168160000Y-130205000D03*
X163080000Y-130205000D03*
X158000000Y-130205000D03*
%TD*%
D16*
%TO.C,RV2*%
X133610000Y-102685000D03*
D29*
X131110000Y-105185000D03*
X136110000Y-102685000D03*
X131110000Y-100185000D03*
%TD*%
D13*
%TO.C,TP17*%
X186670000Y-64295000D03*
%TD*%
D11*
%TO.C,J13*%
X120170000Y-107325000D03*
D12*
X116995000Y-104150000D03*
X116995000Y-110500000D03*
X123345000Y-104150000D03*
X123345000Y-110500000D03*
%TD*%
D17*
%TO.C,Je1*%
X115670000Y-118695000D03*
D18*
X118210000Y-118695000D03*
X120750000Y-118695000D03*
X123290000Y-118695000D03*
%TD*%
D19*
%TO.C,U12*%
X174540000Y-137475000D03*
D30*
X173270000Y-142555000D03*
X172000000Y-137475000D03*
X170730000Y-142555000D03*
X169460000Y-137475000D03*
X168190000Y-142555000D03*
X166920000Y-137475000D03*
X165650000Y-142555000D03*
X164380000Y-137475000D03*
X163110000Y-142555000D03*
X161840000Y-137475000D03*
X160570000Y-142555000D03*
X159300000Y-137475000D03*
X158030000Y-142555000D03*
X156760000Y-137475000D03*
%TD*%
D17*
%TO.C,J7*%
X104620000Y-48965000D03*
D18*
X104620000Y-51505000D03*
X104620000Y-54045000D03*
X104620000Y-56585000D03*
X104620000Y-59125000D03*
X104620000Y-61665000D03*
X104620000Y-64205000D03*
X104620000Y-66745000D03*
X104620000Y-69285000D03*
X104620000Y-71825000D03*
X104620000Y-74365000D03*
X104620000Y-76905000D03*
X104620000Y-79445000D03*
X104620000Y-81985000D03*
X104620000Y-84525000D03*
X104620000Y-87065000D03*
X104620000Y-89605000D03*
X104620000Y-92145000D03*
X104620000Y-94685000D03*
X104620000Y-97225000D03*
X107160000Y-97225000D03*
X107160000Y-94685000D03*
X107160000Y-92145000D03*
X107160000Y-89605000D03*
X107160000Y-87065000D03*
X107160000Y-84525000D03*
X107160000Y-81985000D03*
X107160000Y-79445000D03*
X107160000Y-76905000D03*
X107160000Y-74365000D03*
X107160000Y-71825000D03*
X107160000Y-69285000D03*
X107160000Y-66745000D03*
X107160000Y-64205000D03*
X107160000Y-61665000D03*
X107160000Y-59125000D03*
X107160000Y-56585000D03*
X107160000Y-54045000D03*
X107160000Y-51505000D03*
X107160000Y-48965000D03*
%TD*%
D31*
%TO.C,JP12*%
X145510000Y-86185000D03*
D32*
X144210000Y-86185000D03*
%TD*%
D31*
%TO.C,JP28*%
X139285000Y-76935000D03*
D32*
X137985000Y-76935000D03*
%TD*%
D31*
%TO.C,JP41*%
X132320000Y-69355000D03*
D32*
X131020000Y-69355000D03*
%TD*%
D31*
%TO.C,JP66*%
X110010000Y-97285000D03*
D32*
X108710000Y-97285000D03*
%TD*%
D31*
%TO.C,JP83*%
X102860000Y-97285000D03*
D32*
X101560000Y-97285000D03*
%TD*%
D31*
%TO.C,JP8*%
X145500000Y-75885000D03*
D32*
X144200000Y-75885000D03*
%TD*%
D31*
%TO.C,JP81*%
X103020000Y-89665000D03*
D32*
X101720000Y-89665000D03*
%TD*%
D31*
%TO.C,JP79*%
X103020000Y-84585000D03*
D32*
X101720000Y-84585000D03*
%TD*%
D31*
%TO.C,JP85*%
X186120000Y-98625000D03*
D32*
X184820000Y-98625000D03*
%TD*%
D31*
%TO.C,JP31*%
X139335000Y-87110000D03*
D32*
X138035000Y-87110000D03*
%TD*%
D31*
%TO.C,JP74*%
X103060000Y-69285000D03*
D32*
X101760000Y-69285000D03*
%TD*%
D31*
%TO.C,JP78*%
X103020000Y-82045000D03*
D32*
X101720000Y-82045000D03*
%TD*%
D31*
%TO.C,JP13*%
X145510000Y-88795000D03*
D32*
X144210000Y-88795000D03*
%TD*%
D31*
%TO.C,JP22*%
X139335000Y-56635000D03*
D32*
X138035000Y-56635000D03*
%TD*%
D31*
%TO.C,JP69*%
X103110000Y-53985000D03*
D32*
X101810000Y-53985000D03*
%TD*%
D33*
%TO.C,JP87*%
X186690000Y-88215000D03*
D34*
X186690000Y-86915000D03*
%TD*%
D31*
%TO.C,JP44*%
X132320000Y-82035000D03*
D32*
X131020000Y-82035000D03*
%TD*%
D31*
%TO.C,JP47*%
X132380000Y-89675000D03*
D32*
X131080000Y-89675000D03*
%TD*%
D35*
%TO.C,JP18*%
X174370000Y-49475000D03*
D36*
X175670000Y-49475000D03*
%TD*%
D31*
%TO.C,JP73*%
X103085000Y-64110000D03*
D32*
X101785000Y-64110000D03*
%TD*%
D31*
%TO.C,JP59*%
X110010000Y-74425000D03*
D32*
X108710000Y-74425000D03*
%TD*%
D31*
%TO.C,JP40*%
X132200000Y-64185000D03*
D32*
X130900000Y-64185000D03*
%TD*%
D31*
%TO.C,JP19*%
X171420085Y-60855000D03*
D32*
X170120085Y-60855000D03*
%TD*%
D31*
%TO.C,JP42*%
X132190000Y-71885000D03*
D32*
X130890000Y-71885000D03*
%TD*%
D31*
%TO.C,JP15*%
X145480000Y-93955000D03*
D32*
X144180000Y-93955000D03*
%TD*%
D31*
%TO.C,JP60*%
X110010000Y-76965000D03*
D32*
X108710000Y-76965000D03*
%TD*%
D31*
%TO.C,JP34*%
X139260000Y-97335000D03*
D32*
X137960000Y-97335000D03*
%TD*%
D31*
%TO.C,JP80*%
X103020000Y-87125000D03*
D32*
X101720000Y-87125000D03*
%TD*%
D31*
%TO.C,JP67*%
X103110000Y-48985000D03*
D32*
X101810000Y-48985000D03*
%TD*%
D31*
%TO.C,JP82*%
X102935000Y-94735000D03*
D32*
X101635000Y-94735000D03*
%TD*%
D31*
%TO.C,JP11*%
X145510000Y-83605000D03*
D32*
X144210000Y-83605000D03*
%TD*%
D31*
%TO.C,JP23*%
X139335000Y-59160000D03*
D32*
X138035000Y-59160000D03*
%TD*%
D31*
%TO.C,JP77*%
X103020000Y-76905000D03*
D32*
X101720000Y-76905000D03*
%TD*%
D31*
%TO.C,JP1*%
X145490000Y-57765000D03*
D32*
X144190000Y-57765000D03*
%TD*%
D31*
%TO.C,JP27*%
X139285000Y-71885000D03*
D32*
X137985000Y-71885000D03*
%TD*%
D31*
%TO.C,JP39*%
X132240000Y-61645000D03*
D32*
X130940000Y-61645000D03*
%TD*%
D31*
%TO.C,JP3*%
X145490000Y-62935000D03*
D32*
X144190000Y-62935000D03*
%TD*%
D31*
%TO.C,JP17*%
X167960000Y-52555000D03*
D32*
X166660000Y-52555000D03*
%TD*%
D31*
%TO.C,JP5*%
X145490000Y-68115000D03*
D32*
X144190000Y-68115000D03*
%TD*%
D31*
%TO.C,JP63*%
X110010000Y-87125000D03*
D32*
X108710000Y-87125000D03*
%TD*%
D33*
%TO.C,JP86*%
X182630000Y-93535000D03*
D34*
X182630000Y-92235000D03*
%TD*%
D31*
%TO.C,JP51*%
X110040000Y-49015000D03*
D32*
X108740000Y-49015000D03*
%TD*%
D31*
%TO.C,JP68*%
X103085000Y-51485000D03*
D32*
X101785000Y-51485000D03*
%TD*%
D31*
%TO.C,JP38*%
X132210000Y-59135000D03*
D32*
X130910000Y-59135000D03*
%TD*%
D31*
%TO.C,JP75*%
X102910000Y-71835000D03*
D32*
X101610000Y-71835000D03*
%TD*%
D31*
%TO.C,JP65*%
X110010000Y-94745000D03*
D32*
X108710000Y-94745000D03*
%TD*%
D31*
%TO.C,JP32*%
X139335000Y-89635000D03*
D32*
X138035000Y-89635000D03*
%TD*%
D31*
%TO.C,JP29*%
X139310000Y-82035000D03*
D32*
X138010000Y-82035000D03*
%TD*%
D31*
%TO.C,JP49*%
X132290000Y-97245000D03*
D32*
X130990000Y-97245000D03*
%TD*%
D31*
%TO.C,JP45*%
X132320000Y-84585000D03*
D32*
X131020000Y-84585000D03*
%TD*%
D31*
%TO.C,JP16*%
X145480000Y-96535000D03*
D32*
X144180000Y-96535000D03*
%TD*%
D31*
%TO.C,JP10*%
X145510000Y-81015000D03*
D32*
X144210000Y-81015000D03*
%TD*%
D31*
%TO.C,JP52*%
X109980000Y-51525000D03*
D32*
X108680000Y-51525000D03*
%TD*%
D31*
%TO.C,JP70*%
X103210000Y-56485000D03*
D32*
X101910000Y-56485000D03*
%TD*%
D31*
%TO.C,JP35*%
X132300000Y-49015000D03*
D32*
X131000000Y-49015000D03*
%TD*%
D31*
%TO.C,JP46*%
X132380000Y-87145000D03*
D32*
X131080000Y-87145000D03*
%TD*%
D31*
%TO.C,JP33*%
X139260000Y-94785000D03*
D32*
X137960000Y-94785000D03*
%TD*%
D31*
%TO.C,JP4*%
X145490000Y-65525000D03*
D32*
X144190000Y-65525000D03*
%TD*%
D31*
%TO.C,JP64*%
X110010000Y-89665000D03*
D32*
X108710000Y-89665000D03*
%TD*%
D31*
%TO.C,JP58*%
X110010000Y-71885000D03*
D32*
X108710000Y-71885000D03*
%TD*%
D31*
%TO.C,JP48*%
X132330000Y-94705000D03*
D32*
X131030000Y-94705000D03*
%TD*%
D31*
%TO.C,JP7*%
X145500000Y-73305000D03*
D32*
X144200000Y-73305000D03*
%TD*%
D31*
%TO.C,JP53*%
X109980000Y-56675000D03*
D32*
X108680000Y-56675000D03*
%TD*%
D31*
%TO.C,JP61*%
X110010000Y-82045000D03*
D32*
X108710000Y-82045000D03*
%TD*%
D31*
%TO.C,JP6*%
X145500000Y-70735000D03*
D32*
X144200000Y-70735000D03*
%TD*%
D31*
%TO.C,JP72*%
X103085000Y-61585000D03*
D32*
X101785000Y-61585000D03*
%TD*%
D31*
%TO.C,JP76*%
X103030000Y-74365000D03*
D32*
X101730000Y-74365000D03*
%TD*%
D31*
%TO.C,JP56*%
X109990000Y-64215000D03*
D32*
X108690000Y-64215000D03*
%TD*%
D31*
%TO.C,JP26*%
X139285000Y-69335000D03*
D32*
X137985000Y-69335000D03*
%TD*%
D31*
%TO.C,JP25*%
X139310000Y-64210000D03*
D32*
X138010000Y-64210000D03*
%TD*%
D31*
%TO.C,JP55*%
X110000000Y-61675000D03*
D32*
X108700000Y-61675000D03*
%TD*%
D31*
%TO.C,JP36*%
X132220000Y-51565000D03*
D32*
X130920000Y-51565000D03*
%TD*%
D31*
%TO.C,JP14*%
X145500000Y-91375000D03*
D32*
X144200000Y-91375000D03*
%TD*%
D37*
%TO.C,JP50*%
X120480000Y-48965000D03*
D38*
X120480000Y-50265000D03*
%TD*%
D31*
%TO.C,JP89*%
X124530000Y-145545000D03*
D32*
X123230000Y-145545000D03*
%TD*%
D31*
%TO.C,JP20*%
X139235000Y-48960000D03*
D32*
X137935000Y-48960000D03*
%TD*%
D31*
%TO.C,JP30*%
X139335000Y-84585000D03*
D32*
X138035000Y-84585000D03*
%TD*%
D31*
%TO.C,JP24*%
X139335000Y-61710000D03*
D32*
X138035000Y-61710000D03*
%TD*%
D31*
%TO.C,JP43*%
X132320000Y-76935000D03*
D32*
X131020000Y-76935000D03*
%TD*%
D31*
%TO.C,JP57*%
X110010000Y-69345000D03*
D32*
X108710000Y-69345000D03*
%TD*%
D31*
%TO.C,JP54*%
X109980000Y-59175000D03*
D32*
X108680000Y-59175000D03*
%TD*%
D31*
%TO.C,JP2*%
X145490000Y-60345000D03*
D32*
X144190000Y-60345000D03*
%TD*%
D31*
%TO.C,JP9*%
X145510000Y-78455000D03*
D32*
X144210000Y-78455000D03*
%TD*%
D33*
%TO.C,JP88*%
X176530000Y-60795000D03*
D34*
X176530000Y-59495000D03*
%TD*%
D31*
%TO.C,JP71*%
X103085000Y-59035000D03*
D32*
X101785000Y-59035000D03*
%TD*%
D31*
%TO.C,JP37*%
X132240000Y-56535000D03*
D32*
X130940000Y-56535000D03*
%TD*%
D31*
%TO.C,JP21*%
X139235000Y-51485000D03*
D32*
X137935000Y-51485000D03*
%TD*%
D31*
%TO.C,JP62*%
X110010000Y-84585000D03*
D32*
X108710000Y-84585000D03*
%TD*%
M02*
