%TF.GenerationSoftware,KiCad,Pcbnew,8.0.4+dfsg-1*%
%TF.CreationDate,2025-02-20T19:36:53-08:00*%
%TF.ProjectId,Audio_in_usd_sound_rp_pico,41756469-6f5f-4696-9e5f-7573645f736f,v0.3.0*%
%TF.SameCoordinates,Original*%
%TF.FileFunction,Paste,Top*%
%TF.FilePolarity,Positive*%
%FSLAX46Y46*%
G04 Gerber Fmt 4.6, Leading zero omitted, Abs format (unit mm)*
G04 Created by KiCad (PCBNEW 8.0.4+dfsg-1) date 2025-02-20 19:36:53*
%MOMM*%
%LPD*%
G01*
G04 APERTURE LIST*
G04 Aperture macros list*
%AMRoundRect*
0 Rectangle with rounded corners*
0 $1 Rounding radius*
0 $2 $3 $4 $5 $6 $7 $8 $9 X,Y pos of 4 corners*
0 Add a 4 corners polygon primitive as box body*
4,1,4,$2,$3,$4,$5,$6,$7,$8,$9,$2,$3,0*
0 Add four circle primitives for the rounded corners*
1,1,$1+$1,$2,$3*
1,1,$1+$1,$4,$5*
1,1,$1+$1,$6,$7*
1,1,$1+$1,$8,$9*
0 Add four rect primitives between the rounded corners*
20,1,$1+$1,$2,$3,$4,$5,0*
20,1,$1+$1,$4,$5,$6,$7,0*
20,1,$1+$1,$6,$7,$8,$9,0*
20,1,$1+$1,$8,$9,$2,$3,0*%
G04 Aperture macros list end*
%ADD10R,0.576580X0.351536*%
%ADD11R,0.351536X0.576580*%
%ADD12R,2.800000X2.800000*%
%ADD13R,2.200000X2.800000*%
%ADD14R,2.800000X2.200000*%
%ADD15RoundRect,0.225000X-0.250000X0.225000X-0.250000X-0.225000X0.250000X-0.225000X0.250000X0.225000X0*%
%ADD16RoundRect,0.200000X-0.275000X0.200000X-0.275000X-0.200000X0.275000X-0.200000X0.275000X0.200000X0*%
%ADD17RoundRect,0.200000X0.275000X-0.200000X0.275000X0.200000X-0.275000X0.200000X-0.275000X-0.200000X0*%
%ADD18RoundRect,0.225000X0.225000X0.250000X-0.225000X0.250000X-0.225000X-0.250000X0.225000X-0.250000X0*%
%ADD19RoundRect,0.225000X0.250000X-0.225000X0.250000X0.225000X-0.250000X0.225000X-0.250000X-0.225000X0*%
%ADD20RoundRect,0.225000X-0.225000X-0.250000X0.225000X-0.250000X0.225000X0.250000X-0.225000X0.250000X0*%
%ADD21RoundRect,0.200000X-0.200000X-0.275000X0.200000X-0.275000X0.200000X0.275000X-0.200000X0.275000X0*%
%ADD22RoundRect,0.250000X0.475000X-0.250000X0.475000X0.250000X-0.475000X0.250000X-0.475000X-0.250000X0*%
%ADD23RoundRect,0.248780X-0.451220X0.261220X-0.451220X-0.261220X0.451220X-0.261220X0.451220X0.261220X0*%
%ADD24RoundRect,0.150000X-0.675000X-0.150000X0.675000X-0.150000X0.675000X0.150000X-0.675000X0.150000X0*%
%ADD25RoundRect,0.250000X-0.300000X-0.550000X0.300000X-0.550000X0.300000X0.550000X-0.300000X0.550000X0*%
%ADD26RoundRect,0.250000X-0.450000X0.262500X-0.450000X-0.262500X0.450000X-0.262500X0.450000X0.262500X0*%
%ADD27RoundRect,0.248780X0.261220X0.451220X-0.261220X0.451220X-0.261220X-0.451220X0.261220X-0.451220X0*%
%ADD28RoundRect,0.218750X-0.218750X-0.381250X0.218750X-0.381250X0.218750X0.381250X-0.218750X0.381250X0*%
%ADD29RoundRect,0.248780X-0.261220X-0.451220X0.261220X-0.451220X0.261220X0.451220X-0.261220X0.451220X0*%
%ADD30RoundRect,0.250000X-0.262500X-0.450000X0.262500X-0.450000X0.262500X0.450000X-0.262500X0.450000X0*%
%ADD31RoundRect,0.250000X-0.475000X0.250000X-0.475000X-0.250000X0.475000X-0.250000X0.475000X0.250000X0*%
%ADD32RoundRect,0.250000X0.262500X0.450000X-0.262500X0.450000X-0.262500X-0.450000X0.262500X-0.450000X0*%
%ADD33RoundRect,0.250000X0.450000X-0.262500X0.450000X0.262500X-0.450000X0.262500X-0.450000X-0.262500X0*%
%ADD34RoundRect,0.250000X-0.250000X-0.475000X0.250000X-0.475000X0.250000X0.475000X-0.250000X0.475000X0*%
%ADD35RoundRect,0.248780X0.451220X-0.261220X0.451220X0.261220X-0.451220X0.261220X-0.451220X-0.261220X0*%
%ADD36RoundRect,0.150000X-0.590000X-0.150000X0.590000X-0.150000X0.590000X0.150000X-0.590000X0.150000X0*%
%ADD37RoundRect,0.242500X-0.242500X-0.457500X0.242500X-0.457500X0.242500X0.457500X-0.242500X0.457500X0*%
%ADD38RoundRect,0.243750X-0.243750X-0.456250X0.243750X-0.456250X0.243750X0.456250X-0.243750X0.456250X0*%
%ADD39RoundRect,0.100000X-0.637500X-0.100000X0.637500X-0.100000X0.637500X0.100000X-0.637500X0.100000X0*%
%ADD40RoundRect,0.250000X0.250000X0.475000X-0.250000X0.475000X-0.250000X-0.475000X0.250000X-0.475000X0*%
%ADD41R,1.000000X0.750000*%
%ADD42RoundRect,0.250000X-0.650000X-0.250000X0.650000X-0.250000X0.650000X0.250000X-0.650000X0.250000X0*%
%ADD43RoundRect,0.150000X0.587500X0.150000X-0.587500X0.150000X-0.587500X-0.150000X0.587500X-0.150000X0*%
%ADD44RoundRect,0.150000X0.590000X0.150000X-0.590000X0.150000X-0.590000X-0.150000X0.590000X-0.150000X0*%
%ADD45O,0.570000X1.950000*%
%ADD46RoundRect,0.087500X-0.725000X-0.087500X0.725000X-0.087500X0.725000X0.087500X-0.725000X0.087500X0*%
%ADD47R,1.800000X1.100000*%
%ADD48RoundRect,0.250000X-0.312500X-0.625000X0.312500X-0.625000X0.312500X0.625000X-0.312500X0.625000X0*%
%ADD49R,1.400000X1.200000*%
%ADD50R,0.400000X1.200000*%
%ADD51RoundRect,0.250000X-0.300000X2.050000X-0.300000X-2.050000X0.300000X-2.050000X0.300000X2.050000X0*%
%ADD52RoundRect,0.250000X-2.375000X2.025000X-2.375000X-2.025000X2.375000X-2.025000X2.375000X2.025000X0*%
%ADD53RoundRect,0.250000X0.625000X-0.312500X0.625000X0.312500X-0.625000X0.312500X-0.625000X-0.312500X0*%
%ADD54RoundRect,0.250000X0.600000X0.250000X-0.600000X0.250000X-0.600000X-0.250000X0.600000X-0.250000X0*%
%ADD55RoundRect,0.150000X-0.150000X0.825000X-0.150000X-0.825000X0.150000X-0.825000X0.150000X0.825000X0*%
%ADD56RoundRect,0.250000X-0.625000X0.375000X-0.625000X-0.375000X0.625000X-0.375000X0.625000X0.375000X0*%
%ADD57RoundRect,0.150000X-0.825000X-0.150000X0.825000X-0.150000X0.825000X0.150000X-0.825000X0.150000X0*%
G04 APERTURE END LIST*
D10*
%TO.C,U1*%
X186330300Y-121325001D03*
X186330300Y-120825000D03*
X186330300Y-120325000D03*
X186330300Y-119824999D03*
D11*
X185619999Y-119618700D03*
X185120000Y-119618700D03*
X184620001Y-119618700D03*
D10*
X183909700Y-119824999D03*
X183909700Y-120325000D03*
X183909700Y-120825000D03*
X183909700Y-121325001D03*
D11*
X184620001Y-121531300D03*
X185120000Y-121531300D03*
X185619999Y-121531300D03*
%TD*%
D12*
%TO.C,J17*%
X177590000Y-106545000D03*
D13*
X184590000Y-106545000D03*
X182590000Y-113945000D03*
%TD*%
D14*
%TO.C,J16*%
X178380000Y-141815000D03*
X185780000Y-143815000D03*
D12*
X185780000Y-136815000D03*
%TD*%
D14*
%TO.C,J15*%
X97600000Y-53445000D03*
X90200000Y-51445000D03*
D12*
X90200000Y-58445000D03*
%TD*%
D14*
%TO.C,J12*%
X186100000Y-53275000D03*
X178700000Y-51275000D03*
D12*
X178700000Y-58275000D03*
%TD*%
D14*
%TO.C,J1*%
X174660000Y-53275000D03*
X167260000Y-51275000D03*
D12*
X167260000Y-58275000D03*
%TD*%
D15*
%TO.C,C47*%
X185650000Y-116735000D03*
X185650000Y-118295000D03*
%TD*%
D16*
%TO.C,R11*%
X175890000Y-81965000D03*
X175890000Y-83605000D03*
%TD*%
D17*
%TO.C,R1*%
X174490000Y-83185000D03*
X174490000Y-81545000D03*
%TD*%
D18*
%TO.C,C41*%
X110400000Y-128665000D03*
X108840000Y-128665000D03*
%TD*%
D19*
%TO.C,C2*%
X182190000Y-121015000D03*
X182190000Y-119455000D03*
%TD*%
D20*
%TO.C,C52*%
X106358000Y-127313000D03*
X107918000Y-127313000D03*
%TD*%
D19*
%TO.C,C38*%
X122570000Y-135812107D03*
X122570000Y-134252107D03*
%TD*%
D21*
%TO.C,R22*%
X116994000Y-135675000D03*
X118634000Y-135675000D03*
%TD*%
D16*
%TO.C,R20*%
X117510000Y-136795000D03*
X117510000Y-138435000D03*
%TD*%
%TO.C,R10*%
X108240000Y-134775000D03*
X108240000Y-136415000D03*
%TD*%
D20*
%TO.C,C43*%
X119100000Y-132800000D03*
X120660000Y-132800000D03*
%TD*%
D18*
%TO.C,C37*%
X114595000Y-128630000D03*
X113035000Y-128630000D03*
%TD*%
D15*
%TO.C,C36*%
X112480000Y-118277000D03*
X112480000Y-119837000D03*
%TD*%
D18*
%TO.C,C35*%
X107390000Y-137725000D03*
X105830000Y-137725000D03*
%TD*%
%TO.C,C34*%
X114790000Y-133575000D03*
X113230000Y-133575000D03*
%TD*%
%TO.C,C54*%
X120644000Y-134061000D03*
X119084000Y-134061000D03*
%TD*%
D22*
%TO.C,C57*%
X160250000Y-81175000D03*
X160250000Y-79275000D03*
%TD*%
D23*
%TO.C,R43*%
X160660000Y-69975000D03*
X160660000Y-71795000D03*
%TD*%
D24*
%TO.C,U9*%
X109945000Y-135585000D03*
X109945000Y-136855000D03*
X109945000Y-138125000D03*
X109945000Y-139395000D03*
X115195000Y-139395000D03*
X115195000Y-138125000D03*
X115195000Y-136855000D03*
X115195000Y-135585000D03*
%TD*%
D25*
%TO.C,D5*%
X126560000Y-133975000D03*
X129360000Y-133975000D03*
%TD*%
D26*
%TO.C,R35*%
X136460000Y-107562500D03*
X136460000Y-109387500D03*
%TD*%
D27*
%TO.C,R42*%
X176950000Y-123955000D03*
X175130000Y-123955000D03*
%TD*%
D28*
%TO.C,R32*%
X161635000Y-118275000D03*
X163760000Y-118275000D03*
%TD*%
D29*
%TO.C,R5*%
X88910000Y-140025000D03*
X90730000Y-140025000D03*
%TD*%
D22*
%TO.C,C40*%
X112610000Y-143600000D03*
X112610000Y-141700000D03*
%TD*%
D30*
%TO.C,R27*%
X115317500Y-142645000D03*
X117142500Y-142645000D03*
%TD*%
D31*
%TO.C,C7*%
X162900000Y-65705000D03*
X162900000Y-67605000D03*
%TD*%
D32*
%TO.C,R3*%
X167030000Y-67510000D03*
X165205000Y-67510000D03*
%TD*%
D33*
%TO.C,R19*%
X104410000Y-135337500D03*
X104410000Y-133512500D03*
%TD*%
D34*
%TO.C,C4*%
X165100000Y-65120000D03*
X167000000Y-65120000D03*
%TD*%
D35*
%TO.C,R18*%
X171620000Y-67735000D03*
X171620000Y-65915000D03*
%TD*%
D36*
%TO.C,Q1*%
X93330000Y-137475000D03*
X93330000Y-139375000D03*
X95210000Y-138425000D03*
%TD*%
D37*
%TO.C,D1*%
X88880000Y-134725000D03*
X90760000Y-134725000D03*
%TD*%
D34*
%TO.C,C50*%
X126600000Y-143635000D03*
X128500000Y-143635000D03*
%TD*%
D22*
%TO.C,C20*%
X174400000Y-88465000D03*
X174400000Y-86565000D03*
%TD*%
D38*
%TO.C,D17*%
X145772500Y-115815000D03*
X147647500Y-115815000D03*
%TD*%
D22*
%TO.C,C11*%
X162850000Y-71275000D03*
X162850000Y-69375000D03*
%TD*%
D25*
%TO.C,D12*%
X131060000Y-131575000D03*
X133860000Y-131575000D03*
%TD*%
D31*
%TO.C,C33*%
X106590000Y-135365000D03*
X106590000Y-133465000D03*
%TD*%
D29*
%TO.C,R30*%
X105310000Y-125235000D03*
X107130000Y-125235000D03*
%TD*%
D34*
%TO.C,C32*%
X174240000Y-64255000D03*
X176140000Y-64255000D03*
%TD*%
D39*
%TO.C,U2*%
X167350000Y-75320000D03*
X167350000Y-75970000D03*
X167350000Y-76620000D03*
X167350000Y-77270000D03*
X167350000Y-77920000D03*
X167350000Y-78570000D03*
X167350000Y-79220000D03*
X173075000Y-79220000D03*
X173075000Y-78570000D03*
X173075000Y-77920000D03*
X173075000Y-77270000D03*
X173075000Y-76620000D03*
X173075000Y-75970000D03*
X173075000Y-75320000D03*
%TD*%
D40*
%TO.C,C17*%
X99610000Y-140325000D03*
X97710000Y-140325000D03*
%TD*%
D22*
%TO.C,C12*%
X164215000Y-77165000D03*
X164215000Y-75265000D03*
%TD*%
%TO.C,C28*%
X184320000Y-68115000D03*
X184320000Y-66215000D03*
%TD*%
D32*
%TO.C,R12*%
X180660000Y-85245000D03*
X178835000Y-85245000D03*
%TD*%
D41*
%TO.C,SW1*%
X90390000Y-111990000D03*
X96390000Y-111990000D03*
X90390000Y-115740000D03*
X96390000Y-115740000D03*
%TD*%
D42*
%TO.C,X1*%
X120585000Y-124910000D03*
X120585000Y-127410000D03*
%TD*%
D30*
%TO.C,R34*%
X161760000Y-120575000D03*
X163585000Y-120575000D03*
%TD*%
D31*
%TO.C,C44*%
X121750000Y-138485000D03*
X121750000Y-140385000D03*
%TD*%
D38*
%TO.C,D14*%
X141772500Y-115815000D03*
X143647500Y-115815000D03*
%TD*%
D35*
%TO.C,R29*%
X116680000Y-133425000D03*
X116680000Y-131605000D03*
%TD*%
D34*
%TO.C,C49*%
X126560000Y-141495000D03*
X128460000Y-141495000D03*
%TD*%
%TO.C,C46*%
X105260000Y-122745000D03*
X107160000Y-122745000D03*
%TD*%
D29*
%TO.C,R8*%
X97660000Y-133675000D03*
X99480000Y-133675000D03*
%TD*%
D31*
%TO.C,C21*%
X181690000Y-78565000D03*
X181690000Y-80465000D03*
%TD*%
%TO.C,C39*%
X106550000Y-128835000D03*
X106550000Y-130735000D03*
%TD*%
D41*
%TO.C,SW2*%
X90330000Y-103290000D03*
X96330000Y-103290000D03*
X90330000Y-107040000D03*
X96330000Y-107040000D03*
%TD*%
D26*
%TO.C,R23*%
X109960000Y-141700000D03*
X109960000Y-143525000D03*
%TD*%
D22*
%TO.C,C26*%
X176140000Y-80495000D03*
X176140000Y-78595000D03*
%TD*%
D34*
%TO.C,C56*%
X170425000Y-85550000D03*
X172325000Y-85550000D03*
%TD*%
%TO.C,C30*%
X178930000Y-64355000D03*
X180830000Y-64355000D03*
%TD*%
D30*
%TO.C,R25*%
X117455000Y-140115000D03*
X119280000Y-140115000D03*
%TD*%
D26*
%TO.C,R2*%
X169060000Y-68660000D03*
X169060000Y-70485000D03*
%TD*%
D43*
%TO.C,U5*%
X169310000Y-110025000D03*
X169310000Y-108125000D03*
X167435000Y-109075000D03*
%TD*%
D36*
%TO.C,Q2*%
X97880000Y-135675000D03*
X97880000Y-137575000D03*
X99760000Y-136625000D03*
%TD*%
D29*
%TO.C,R4*%
X88860000Y-137675000D03*
X90680000Y-137675000D03*
%TD*%
D22*
%TO.C,C23*%
X176810000Y-89635000D03*
X176810000Y-87735000D03*
%TD*%
D34*
%TO.C,C14*%
X162710000Y-81685000D03*
X164610000Y-81685000D03*
%TD*%
D38*
%TO.C,D20*%
X149797500Y-115815000D03*
X151672500Y-115815000D03*
%TD*%
D22*
%TO.C,C19*%
X180380000Y-89665000D03*
X180380000Y-87765000D03*
%TD*%
D25*
%TO.C,D8*%
X131060000Y-129175000D03*
X133860000Y-129175000D03*
%TD*%
D38*
%TO.C,D18*%
X145772500Y-119790000D03*
X147647500Y-119790000D03*
%TD*%
D25*
%TO.C,D10*%
X131060000Y-136375000D03*
X133860000Y-136375000D03*
%TD*%
D44*
%TO.C,Q3*%
X114010000Y-131975000D03*
X114010000Y-130075000D03*
X112130000Y-131025000D03*
%TD*%
D35*
%TO.C,R9*%
X101860000Y-140445000D03*
X101860000Y-138625000D03*
%TD*%
D22*
%TO.C,C27*%
X186460000Y-80495000D03*
X186460000Y-78595000D03*
%TD*%
D34*
%TO.C,C9*%
X165240000Y-72425000D03*
X167140000Y-72425000D03*
%TD*%
D40*
%TO.C,C6*%
X167140000Y-69885000D03*
X165240000Y-69885000D03*
%TD*%
D45*
%TO.C,U13*%
X130930000Y-113405000D03*
X132200000Y-113405000D03*
X133480000Y-113405000D03*
X134750000Y-113405000D03*
X134750000Y-107985000D03*
X133480000Y-107985000D03*
X132200000Y-107985000D03*
X130930000Y-107985000D03*
%TD*%
D33*
%TO.C,R36*%
X127970000Y-105755000D03*
X127970000Y-103930000D03*
%TD*%
D29*
%TO.C,R7*%
X93390000Y-135125000D03*
X95210000Y-135125000D03*
%TD*%
D32*
%TO.C,R39*%
X155297500Y-111815000D03*
X153472500Y-111815000D03*
%TD*%
D29*
%TO.C,R31*%
X175170000Y-120215000D03*
X176990000Y-120215000D03*
%TD*%
D34*
%TO.C,C18*%
X178800000Y-91735000D03*
X180700000Y-91735000D03*
%TD*%
D38*
%TO.C,D19*%
X149772500Y-111815000D03*
X151647500Y-111815000D03*
%TD*%
D35*
%TO.C,R14*%
X184270000Y-71525000D03*
X184270000Y-69705000D03*
%TD*%
D38*
%TO.C,D15*%
X141772500Y-119790000D03*
X143647500Y-119790000D03*
%TD*%
D46*
%TO.C,U4*%
X153895000Y-60105000D03*
X153895000Y-60605000D03*
X153895000Y-61105000D03*
X153895000Y-61605000D03*
X153895000Y-62105000D03*
X158120000Y-62105000D03*
X158120000Y-61605000D03*
X158120000Y-61105000D03*
X158120000Y-60605000D03*
X158120000Y-60105000D03*
%TD*%
D38*
%TO.C,D21*%
X149772500Y-119790000D03*
X151647500Y-119790000D03*
%TD*%
D47*
%TO.C,D4*%
X166060000Y-116675000D03*
X166060000Y-118275000D03*
X166060000Y-119875000D03*
X170860000Y-119875000D03*
X170860000Y-118275000D03*
X170860000Y-116675000D03*
%TD*%
D34*
%TO.C,C8*%
X166940000Y-81725000D03*
X168840000Y-81725000D03*
%TD*%
D48*
%TO.C,R38*%
X143165000Y-53735000D03*
X146090000Y-53735000D03*
%TD*%
D40*
%TO.C,C24*%
X173010000Y-81685000D03*
X171110000Y-81685000D03*
%TD*%
D35*
%TO.C,R15*%
X174780000Y-71445000D03*
X174780000Y-69625000D03*
%TD*%
%TO.C,R17*%
X186360000Y-68005000D03*
X186360000Y-66185000D03*
%TD*%
D40*
%TO.C,C16*%
X169560000Y-111975000D03*
X167660000Y-111975000D03*
%TD*%
D35*
%TO.C,R13*%
X186360000Y-71395000D03*
X186360000Y-69575000D03*
%TD*%
D38*
%TO.C,D13*%
X141772500Y-111815000D03*
X143647500Y-111815000D03*
%TD*%
D40*
%TO.C,C42*%
X120930000Y-142645000D03*
X119030000Y-142645000D03*
%TD*%
D32*
%TO.C,R21*%
X107480000Y-140985000D03*
X105655000Y-140985000D03*
%TD*%
D22*
%TO.C,C25*%
X184240000Y-80485000D03*
X184240000Y-78585000D03*
%TD*%
D35*
%TO.C,R6*%
X101910000Y-136875000D03*
X101910000Y-135055000D03*
%TD*%
D37*
%TO.C,D3*%
X175130000Y-117925000D03*
X177010000Y-117925000D03*
%TD*%
D35*
%TO.C,R16*%
X171580000Y-71115000D03*
X171580000Y-69295000D03*
%TD*%
D49*
%TO.C,Y1*%
X149420000Y-61305000D03*
X151620000Y-61305000D03*
X151620000Y-59605000D03*
X149420000Y-59605000D03*
%TD*%
D50*
%TO.C,U7*%
X182545000Y-90385000D03*
X183180000Y-90385000D03*
X183815000Y-90385000D03*
X184450000Y-90385000D03*
X185085000Y-90385000D03*
X185720000Y-90385000D03*
X186355000Y-90385000D03*
X186990000Y-90385000D03*
X186990000Y-85185000D03*
X186355000Y-85185000D03*
X185720000Y-85185000D03*
X185085000Y-85185000D03*
X184450000Y-85185000D03*
X183815000Y-85185000D03*
X183180000Y-85185000D03*
X182545000Y-85185000D03*
%TD*%
D51*
%TO.C,U17*%
X165605000Y-90004000D03*
X163065000Y-90004000D03*
D52*
X165840000Y-96729000D03*
X160290000Y-96729000D03*
X165840000Y-101579000D03*
X160290000Y-101579000D03*
D51*
X160525000Y-90004000D03*
%TD*%
D53*
%TO.C,R24*%
X109630000Y-133100000D03*
X109630000Y-130175000D03*
%TD*%
D25*
%TO.C,D6*%
X131060000Y-133975000D03*
X133860000Y-133975000D03*
%TD*%
D34*
%TO.C,C10*%
X162625000Y-79145000D03*
X164525000Y-79145000D03*
%TD*%
D40*
%TO.C,C55*%
X168795000Y-85530000D03*
X166895000Y-85530000D03*
%TD*%
D31*
%TO.C,C22*%
X178530000Y-78605000D03*
X178530000Y-80505000D03*
%TD*%
D38*
%TO.C,D16*%
X145772500Y-111815000D03*
X147647500Y-111815000D03*
%TD*%
D32*
%TO.C,R41*%
X155272500Y-119790000D03*
X153447500Y-119790000D03*
%TD*%
D28*
%TO.C,R33*%
X161685000Y-116175000D03*
X163810000Y-116175000D03*
%TD*%
D25*
%TO.C,D7*%
X126560000Y-129175000D03*
X129360000Y-129175000D03*
%TD*%
D34*
%TO.C,C31*%
X182570000Y-64395000D03*
X184470000Y-64395000D03*
%TD*%
D54*
%TO.C,S2*%
X96410000Y-98805000D03*
X89810000Y-98805000D03*
X96410000Y-95105000D03*
X89810000Y-95105000D03*
%TD*%
D55*
%TO.C,U10*%
X118705000Y-121730000D03*
X117435000Y-121730000D03*
X116165000Y-121730000D03*
X114895000Y-121730000D03*
X113625000Y-121730000D03*
X112355000Y-121730000D03*
X111085000Y-121730000D03*
X109815000Y-121730000D03*
X109815000Y-126680000D03*
X111085000Y-126680000D03*
X112355000Y-126680000D03*
X113625000Y-126680000D03*
X114895000Y-126680000D03*
X116165000Y-126680000D03*
X117435000Y-126680000D03*
X118705000Y-126680000D03*
%TD*%
D25*
%TO.C,D9*%
X126560000Y-136375000D03*
X129360000Y-136375000D03*
%TD*%
%TO.C,D11*%
X126560000Y-131575000D03*
X129360000Y-131575000D03*
%TD*%
D56*
%TO.C,IR-LED1*%
X128270000Y-107405000D03*
X128270000Y-110205000D03*
%TD*%
D33*
%TO.C,R28*%
X119830000Y-130865000D03*
X119830000Y-129040000D03*
%TD*%
D32*
%TO.C,R40*%
X155272500Y-115815000D03*
X153447500Y-115815000D03*
%TD*%
D30*
%TO.C,R44*%
X163322500Y-85590000D03*
X165147500Y-85590000D03*
%TD*%
D31*
%TO.C,C13*%
X162035000Y-75285000D03*
X162035000Y-77185000D03*
%TD*%
D57*
%TO.C,U8*%
X177105000Y-66255000D03*
X177105000Y-67525000D03*
X177105000Y-68795000D03*
X177105000Y-70065000D03*
X182055000Y-70065000D03*
X182055000Y-68795000D03*
X182055000Y-67525000D03*
X182055000Y-66255000D03*
%TD*%
D40*
%TO.C,C45*%
X117930000Y-129675000D03*
X116030000Y-129675000D03*
%TD*%
D34*
%TO.C,C15*%
X155090000Y-63935000D03*
X156990000Y-63935000D03*
%TD*%
D22*
%TO.C,C29*%
X174880000Y-68065000D03*
X174880000Y-66165000D03*
%TD*%
D31*
%TO.C,C3*%
X168990000Y-65015000D03*
X168990000Y-66915000D03*
%TD*%
%TO.C,C51*%
X128420000Y-111905000D03*
X128420000Y-113805000D03*
%TD*%
D20*
%TO.C,C48*%
X118304000Y-116027000D03*
X119864000Y-116027000D03*
%TD*%
M02*
